<?xml version="1.0" encoding="UTF-8" standalone="no"?>
<!-- Created with Inkscape (http://www.inkscape.org/) -->

<svg
   xmlns:dc="http://purl.org/dc/elements/1.1/"
   xmlns:cc="http://creativecommons.org/ns#"
   xmlns:rdf="http://www.w3.org/1999/02/22-rdf-syntax-ns#"
   xmlns:svg="http://www.w3.org/2000/svg"
   xmlns="http://www.w3.org/2000/svg"
   xmlns:sodipodi="http://sodipodi.sourceforge.net/DTD/sodipodi-0.dtd"
   xmlns:inkscape="http://www.inkscape.org/namespaces/inkscape"
   width="750"
   height="400"
   viewBox="0 0 198.4375 105.83334"
   version="1.1"
   id="svg8"
   inkscape:version="0.92.1 r15371"
   sodipodi:docname="logoHome.svg">
  <defs
     id="defs2" />
  <sodipodi:namedview
     id="base"
     pagecolor="#ffffff"
     bordercolor="#666666"
     borderopacity="1.0"
     inkscape:pageopacity="0.0"
     inkscape:pageshadow="2"
     inkscape:zoom="0.98994949"
     inkscape:cx="278.49802"
     inkscape:cy="260.1106"
     inkscape:document-units="mm"
     inkscape:current-layer="layer1"
     showgrid="false"
     units="px"
     inkscape:window-width="2560"
     inkscape:window-height="1027"
     inkscape:window-x="-8"
     inkscape:window-y="-8"
     inkscape:window-maximized="1" />
  <metadata
     id="metadata5">
    <rdf:RDF>
      <cc:Work
         rdf:about="">
        <dc:format>image/svg+xml</dc:format>
        <dc:type
           rdf:resource="http://purl.org/dc/dcmitype/StillImage" />
        <dc:title></dc:title>
      </cc:Work>
    </rdf:RDF>
  </metadata>
  <g
     inkscape:label="Layer 1"
     inkscape:groupmode="layer"
     id="layer1"
     transform="translate(0,-191.16665)">
    <g
       aria-label="GIS Applications Specialist"
       style="font-style:normal;font-weight:normal;font-size:10.58333302px;line-height:1.25;font-family:sans-serif;letter-spacing:0px;word-spacing:0px;fill:#11ec01;fill-opacity:1;stroke:none;stroke-width:0.26458332"
       id="text4536">
      <path
         d="m 95.803465,272.11322 q -0.4445,1.23825 -1.703917,1.23825 -1.291167,0 -2.12725,-0.97366 -0.867833,-1.00542 -0.867833,-2.57175 0,-1.651 0.931333,-2.64584 0.899583,-0.96308 2.31775,-0.96308 0.963083,0 1.608667,0.42333 0.656166,0.41275 1.026583,1.31234 l -1.280583,0.29633 q -0.560917,-0.89958 -1.418167,-0.89958 -0.783167,0 -1.30175,0.66675 -0.53975,0.67733 -0.53975,1.80975 0,1.06891 0.486833,1.73566 0.47625,0.65617 1.27,0.65617 0.677334,0 1.11125,-0.43392 0.4445,-0.4445 0.4445,-1.21708 v -0.0423 l -1.545166,-0.0318 v -0.80434 h 2.741083 v 3.53484 h -1.016 z"
         style="font-style:normal;font-variant:normal;font-weight:bold;font-stretch:normal;font-size:10.58333302px;font-family:Karla;-inkscape-font-specification:'Karla, Bold';font-variant-ligatures:normal;font-variant-caps:normal;font-variant-numeric:normal;font-feature-settings:normal;text-align:start;letter-spacing:-1.32291663px;writing-mode:lr-tb;text-anchor:start;fill:#11ec01;fill-opacity:1;stroke-width:0.26458332"
         id="path4538" />
      <path
         d="m 97.44107,266.33472 h 1.248833 v 6.86859 H 97.44107 Z"
         style="font-style:normal;font-variant:normal;font-weight:bold;font-stretch:normal;font-size:10.58333302px;font-family:Karla;-inkscape-font-specification:'Karla, Bold';font-variant-ligatures:normal;font-variant-caps:normal;font-variant-numeric:normal;font-feature-settings:normal;text-align:start;letter-spacing:-1.32291663px;writing-mode:lr-tb;text-anchor:start;fill:#11ec01;fill-opacity:1;stroke-width:0.26458332"
         id="path4541" />
      <path
         d="m 102.95168,268.22914 q -0.16933,-0.89958 -1.27,-0.89958 -0.53975,0 -0.84667,0.22225 -0.29633,0.21166 -0.29633,0.51858 0,0.30692 0.1905,0.48683 0.20108,0.16934 0.61383,0.3175 l 1.49225,0.58209 q 0.762,0.29633 1.17475,0.75141 0.41275,0.4445 0.41275,1.12184 0,0.93133 -0.6985,1.48166 -0.6985,0.53975 -1.98966,0.53975 -1.143,0 -1.852087,-0.56091 -0.79375,-0.61384 -0.836083,-1.73567 h 1.23825 q 0,0.84667 0.87842,1.06892 0.26458,0.0741 0.6985,0.0741 0.43391,0 0.80433,-0.21167 0.37042,-0.22225 0.37042,-0.58208 0,-0.37042 -0.20109,-0.56092 -0.20108,-0.20108 -0.65616,-0.37041 l -1.36525,-0.53975 q -0.79375,-0.30692 -1.217087,-0.71967 -0.423333,-0.41275 -0.423333,-1.143 0,-0.85725 0.66675,-1.35467 0.67733,-0.51858 1.83092,-0.51858 1.16416,0 1.78858,0.53975 0.635,0.52917 0.73025,1.49225 z"
         style="font-style:normal;font-variant:normal;font-weight:bold;font-stretch:normal;font-size:10.58333302px;font-family:Karla;-inkscape-font-specification:'Karla, Bold';font-variant-ligatures:normal;font-variant-caps:normal;font-variant-numeric:normal;font-feature-settings:normal;text-align:start;letter-spacing:-1.32291663px;writing-mode:lr-tb;text-anchor:start;fill:#11ec01;fill-opacity:1;stroke-width:0.26458332"
         id="path4543" />
      <path
         d="m 107.73088,266.33472 h 1.56633 l 2.25425,6.86859 h -1.32291 l -0.47625,-1.48167 h -2.55059 l -0.48683,1.48167 h -1.32292 z m -0.21167,4.445 h 1.92617 l -0.9525,-2.95275 z"
         style="font-style:normal;font-variant:normal;font-weight:bold;font-stretch:normal;font-size:10.58333302px;font-family:Karla;-inkscape-font-specification:'Karla, Bold';font-variant-ligatures:normal;font-variant-caps:normal;font-variant-numeric:normal;font-feature-settings:normal;text-align:start;letter-spacing:-1.32291663px;writing-mode:lr-tb;text-anchor:start;fill:#11ec01;fill-opacity:1;stroke-width:0.26458332"
         id="path4545" />
      <path
         d="m 112.59872,268.75831 q 0.48683,-0.83609 1.48166,-0.83609 0.9525,0 1.62984,0.71967 0.71966,0.762 0.71966,1.98967 0,1.23825 -0.73025,2.00025 -0.67733,0.71966 -1.61925,0.71966 -0.94191,0 -1.37583,-0.56091 v 2.921 h -1.24883 v -7.65175 h 1.02658 z m 1.25941,3.46075 q 0.22225,0 0.45509,-0.0953 0.24341,-0.0952 0.43391,-0.29634 0.42334,-0.4445 0.42334,-1.18533 0,-0.75142 -0.37042,-1.17475 -0.35983,-0.42333 -0.889,-0.42333 -0.51858,0 -0.85725,0.30691 -0.32808,0.29634 -0.34925,0.85725 v 0.92075 q 0,0.49742 0.34925,0.80434 0.32808,0.28575 0.80433,0.28575 z"
         style="font-style:normal;font-variant:normal;font-weight:bold;font-stretch:normal;font-size:10.58333302px;font-family:Karla;-inkscape-font-specification:'Karla, Bold';font-variant-ligatures:normal;font-variant-caps:normal;font-variant-numeric:normal;font-feature-settings:normal;text-align:start;letter-spacing:-1.32291663px;writing-mode:lr-tb;text-anchor:start;fill:#11ec01;fill-opacity:1;stroke-width:0.26458332"
         id="path4547" />
      <path
         d="m 117.72502,268.75831 q 0.48683,-0.83609 1.48167,-0.83609 0.9525,0 1.62983,0.71967 0.71967,0.762 0.71967,1.98967 0,1.23825 -0.73025,2.00025 -0.67734,0.71966 -1.61925,0.71966 -0.94192,0 -1.37584,-0.56091 v 2.921 h -1.24883 v -7.65175 h 1.02658 z m 1.25942,3.46075 q 0.22225,0 0.45508,-0.0953 0.24342,-0.0952 0.43392,-0.29634 0.42333,-0.4445 0.42333,-1.18533 0,-0.75142 -0.37042,-1.17475 -0.35983,-0.42333 -0.889,-0.42333 -0.51858,0 -0.85725,0.30691 -0.32808,0.29634 -0.34925,0.85725 v 0.92075 q 0,0.49742 0.34925,0.80434 0.32809,0.28575 0.80434,0.28575 z"
         style="font-style:normal;font-variant:normal;font-weight:bold;font-stretch:normal;font-size:10.58333302px;font-family:Karla;-inkscape-font-specification:'Karla, Bold';font-variant-ligatures:normal;font-variant-caps:normal;font-variant-numeric:normal;font-feature-settings:normal;text-align:start;letter-spacing:-1.32291663px;writing-mode:lr-tb;text-anchor:start;fill:#11ec01;fill-opacity:1;stroke-width:0.26458332"
         id="path4549" />
      <path
         d="m 121.70832,265.94314 h 1.24884 v 7.26017 h -1.24884 z"
         style="font-style:normal;font-variant:normal;font-weight:bold;font-stretch:normal;font-size:10.58333302px;font-family:Karla;-inkscape-font-specification:'Karla, Bold';font-variant-ligatures:normal;font-variant-caps:normal;font-variant-numeric:normal;font-feature-settings:normal;text-align:start;letter-spacing:-1.32291663px;writing-mode:lr-tb;text-anchor:start;fill:#11ec01;fill-opacity:1;stroke-width:0.26458332"
         id="path4551" />
      <path
         d="m 123.71585,268.04922 h 1.24883 v 5.15409 h -1.24883 z m -0.14817,-1.651 q 0,-0.33866 0.20109,-0.52916 0.20108,-0.20109 0.5715,-0.20109 0.35983,0 0.56091,0.20109 0.21167,0.1905 0.21167,0.52916 0,0.33867 -0.21167,0.53975 -0.20108,0.1905 -0.56091,0.1905 -0.37042,0 -0.5715,-0.1905 -0.20109,-0.20108 -0.20109,-0.53975 z"
         style="font-style:normal;font-variant:normal;font-weight:bold;font-stretch:normal;font-size:10.58333302px;font-family:Karla;-inkscape-font-specification:'Karla, Bold';font-variant-ligatures:normal;font-variant-caps:normal;font-variant-numeric:normal;font-feature-settings:normal;text-align:start;letter-spacing:-1.32291663px;writing-mode:lr-tb;text-anchor:start;fill:#11ec01;fill-opacity:1;stroke-width:0.26458332"
         id="path4553" />
      <path
         d="m 127.71767,267.92222 q 0.48683,0 0.86783,0.16934 0.39159,0.15875 0.65617,0.42333 0.52917,0.508 0.62442,1.28058 l -1.25942,0.0317 q -0.0847,-0.33866 -0.3175,-0.56091 -0.22225,-0.22225 -0.51858,-0.22225 -0.29634,0 -0.508,0.0953 -0.21167,0.0847 -0.37042,0.27516 -0.35983,0.4445 -0.35983,1.22767 0,0.78317 0.33867,1.18533 0.33866,0.39159 0.81491,0.39159 0.48683,0 0.6985,-0.22225 0.22225,-0.23284 0.22225,-0.62442 h 1.25942 q 0,0.84667 -0.56092,1.40758 -0.5715,0.5715 -1.59808,0.5715 -1.016,0 -1.70392,-0.74083 -0.73025,-0.79375 -0.73025,-1.97908 0,-1.24884 0.73025,-2.00025 0.68792,-0.70909 1.7145,-0.70909 z"
         style="font-style:normal;font-variant:normal;font-weight:bold;font-stretch:normal;font-size:10.58333302px;font-family:Karla;-inkscape-font-specification:'Karla, Bold';font-variant-ligatures:normal;font-variant-caps:normal;font-variant-numeric:normal;font-feature-settings:normal;text-align:start;letter-spacing:-1.32291663px;writing-mode:lr-tb;text-anchor:start;fill:#11ec01;fill-opacity:1;stroke-width:0.26458332"
         id="path4555" />
      <path
         d="m 131.7319,270.19764 q 0.61383,0 1.41816,0.20108 v -0.508 q 0,-0.53975 -0.22225,-0.79375 -0.21166,-0.26458 -0.70908,-0.26458 -0.48683,0 -0.75142,0.20108 -0.26458,0.1905 -0.26458,0.55034 h -1.36525 q 0,-0.87842 0.61383,-1.27 0.62442,-0.39159 1.73567,-0.39159 1.5875,0 2.05317,1.11125 0.15875,0.381 0.15875,0.89959 v 3.27025 h -1.09009 l -0.0952,-0.68792 q -0.49741,0.83608 -1.524,0.83608 -0.99483,0 -1.54516,-0.48683 -0.508,-0.46567 -0.508,-1.17475 0,-0.71967 0.56091,-1.10067 0.56092,-0.39158 1.53459,-0.39158 z m 1.41816,0.99483 q -0.62441,-0.16933 -1.16416,-0.16933 -1.016,0 -1.016,0.67733 0,0.28575 0.23283,0.49742 0.23283,0.20108 0.74083,0.20108 0.51859,0 0.84667,-0.33866 0.33867,-0.34925 0.35983,-0.86784 z"
         style="font-style:normal;font-variant:normal;font-weight:bold;font-stretch:normal;font-size:10.58333302px;font-family:Karla;-inkscape-font-specification:'Karla, Bold';font-variant-ligatures:normal;font-variant-caps:normal;font-variant-numeric:normal;font-feature-settings:normal;text-align:start;letter-spacing:-1.32291663px;writing-mode:lr-tb;text-anchor:start;fill:#11ec01;fill-opacity:1;stroke-width:0.26458332"
         id="path4557" />
      <path
         d="m 137.79598,273.07631 q -0.6985,0.27516 -1.10066,0.27516 -0.40217,0 -0.70909,-0.0953 -0.29633,-0.0952 -0.52916,-0.28575 -0.48684,-0.43391 -0.48684,-1.19591 v -2.87867 h -0.71966 v -0.83608 h 0.71966 v -1.35467 h 1.24884 v 1.35467 h 1.397 v 0.83608 h -1.397 v 2.83633 q 0,0.635 0.60325,0.635 0.30691,0 0.79375,-0.16933 z"
         style="font-style:normal;font-variant:normal;font-weight:bold;font-stretch:normal;font-size:10.58333302px;font-family:Karla;-inkscape-font-specification:'Karla, Bold';font-variant-ligatures:normal;font-variant-caps:normal;font-variant-numeric:normal;font-feature-settings:normal;text-align:start;letter-spacing:-1.32291663px;writing-mode:lr-tb;text-anchor:start;fill:#11ec01;fill-opacity:1;stroke-width:0.26458332"
         id="path4559" />
      <path
         d="m 137.85452,268.04922 h 1.24883 v 5.15409 h -1.24883 z m -0.14817,-1.651 q 0,-0.33866 0.20108,-0.52916 0.20109,-0.20109 0.5715,-0.20109 0.35984,0 0.56092,0.20109 0.21167,0.1905 0.21167,0.52916 0,0.33867 -0.21167,0.53975 -0.20108,0.1905 -0.56092,0.1905 -0.37041,0 -0.5715,-0.1905 -0.20108,-0.20108 -0.20108,-0.53975 z"
         style="font-style:normal;font-variant:normal;font-weight:bold;font-stretch:normal;font-size:10.58333302px;font-family:Karla;-inkscape-font-specification:'Karla, Bold';font-variant-ligatures:normal;font-variant-caps:normal;font-variant-numeric:normal;font-feature-settings:normal;text-align:start;letter-spacing:-1.32291663px;writing-mode:lr-tb;text-anchor:start;fill:#11ec01;fill-opacity:1;stroke-width:0.26458332"
         id="path4562" />
      <path
         d="m 141.91984,267.92222 q 0.51859,0 0.97367,0.16934 0.45508,0.15875 0.78317,0.49741 0.73025,0.74084 0.73025,2.05317 0,1.29117 -0.73025,2.032 -0.65617,0.67733 -1.75684,0.67733 -1.10066,0 -1.778,-0.67733 -0.73025,-0.73025 -0.73025,-2.032 0,-1.32292 0.73025,-2.05317 0.66675,-0.66675 1.778,-0.66675 z m 1.23825,2.70934 q 0,-0.81492 -0.3175,-1.21709 -0.3175,-0.41275 -0.889,-0.41275 -0.56091,0 -0.92075,0.41275 -0.35983,0.40217 -0.35983,1.21709 0,0.81491 0.3175,1.22766 0.32808,0.40217 0.889,0.40217 0.56092,0 0.92075,-0.40217 0.35983,-0.41275 0.35983,-1.22766 z"
         style="font-style:normal;font-variant:normal;font-weight:bold;font-stretch:normal;font-size:10.58333302px;font-family:Karla;-inkscape-font-specification:'Karla, Bold';font-variant-ligatures:normal;font-variant-caps:normal;font-variant-numeric:normal;font-feature-settings:normal;text-align:start;letter-spacing:-1.32291663px;writing-mode:lr-tb;text-anchor:start;fill:#11ec01;fill-opacity:1;stroke-width:0.26458332"
         id="path4564" />
      <path
         d="m 145.79764,268.94881 q 0.508,-1.02659 1.62983,-1.02659 0.9525,0 1.42875,0.62442 0.48684,0.62442 0.48684,1.651 v 3.00567 h -1.24884 v -3.00567 q 0,-0.5715 -0.27516,-0.85725 -0.27517,-0.29633 -0.77259,-0.29633 -0.49741,0 -0.85725,0.4445 -0.34925,0.4445 -0.37041,1.3335 v 2.38125 h -1.24884 v -5.1435 h 1.09009 z"
         style="font-style:normal;font-variant:normal;font-weight:bold;font-stretch:normal;font-size:10.58333302px;font-family:Karla;-inkscape-font-specification:'Karla, Bold';font-variant-ligatures:normal;font-variant-caps:normal;font-variant-numeric:normal;font-feature-settings:normal;text-align:start;letter-spacing:-1.32291663px;writing-mode:lr-tb;text-anchor:start;fill:#11ec01;fill-opacity:1;stroke-width:0.26458332"
         id="path4566" />
      <path
         d="m 150.53947,271.63697 q 0.0212,0.73025 1.06892,0.73025 0.40216,0 0.65616,-0.16933 0.26459,-0.17992 0.26459,-0.41275 0,-0.23283 -0.15875,-0.35983 -0.15875,-0.127 -0.49742,-0.23284 l -1.12183,-0.40216 q -1.24884,-0.43392 -1.24884,-1.41817 0,-0.65617 0.58209,-1.04775 0.59266,-0.40217 1.57691,-0.40217 0.99484,0 1.524,0.43392 0.53975,0.43392 0.56092,1.09008 h -1.17475 q -0.0212,-0.254 -0.24342,-0.40216 -0.22225,-0.14817 -0.635,-0.14817 -0.41275,0 -0.64558,0.16933 -0.22225,0.15875 -0.22225,0.37042 0,0.37042 0.62442,0.55033 l 1.21708,0.45509 q 0.60325,0.20108 0.92075,0.51858 0.32808,0.30692 0.32808,0.80433 0,0.635 -0.60325,1.10067 -0.62441,0.48683 -1.651,0.48683 -1.02658,0 -1.651,-0.4445 -0.62441,-0.45508 -0.635,-1.27 z"
         style="font-style:normal;font-variant:normal;font-weight:bold;font-stretch:normal;font-size:10.58333302px;font-family:Karla;-inkscape-font-specification:'Karla, Bold';font-variant-ligatures:normal;font-variant-caps:normal;font-variant-numeric:normal;font-feature-settings:normal;text-align:start;letter-spacing:-1.32291663px;writing-mode:lr-tb;text-anchor:start;fill:#11ec01;fill-opacity:1;stroke-width:0.26458332"
         id="path4568" />
      <path
         d="m 159.07228,268.22914 q -0.16933,-0.89958 -1.27,-0.89958 -0.53975,0 -0.84666,0.22225 -0.29634,0.21166 -0.29634,0.51858 0,0.30692 0.1905,0.48683 0.20109,0.16934 0.61384,0.3175 l 1.49225,0.58209 q 0.762,0.29633 1.17475,0.75141 0.41275,0.4445 0.41275,1.12184 0,0.93133 -0.6985,1.48166 -0.6985,0.53975 -1.98967,0.53975 -1.143,0 -1.85208,-0.56091 -0.79375,-0.61384 -0.83609,-1.73567 h 1.23825 q 0,0.84667 0.87842,1.06892 0.26458,0.0741 0.6985,0.0741 0.43392,0 0.80433,-0.21167 0.37042,-0.22225 0.37042,-0.58208 0,-0.37042 -0.20108,-0.56092 -0.20109,-0.20108 -0.65617,-0.37041 l -1.36525,-0.53975 q -0.79375,-0.30692 -1.21708,-0.71967 -0.42334,-0.41275 -0.42334,-1.143 0,-0.85725 0.66675,-1.35467 0.67734,-0.51858 1.83092,-0.51858 1.16417,0 1.78858,0.53975 0.635,0.52917 0.73025,1.49225 z"
         style="font-style:normal;font-variant:normal;font-weight:bold;font-stretch:normal;font-size:10.58333302px;font-family:Karla;-inkscape-font-specification:'Karla, Bold';font-variant-ligatures:normal;font-variant-caps:normal;font-variant-numeric:normal;font-feature-settings:normal;text-align:start;letter-spacing:-1.32291663px;writing-mode:lr-tb;text-anchor:start;fill:#11ec01;fill-opacity:1;stroke-width:0.26458332"
         id="path4570" />
      <path
         d="m 162.04273,268.75831 q 0.48683,-0.83609 1.48167,-0.83609 0.9525,0 1.62983,0.71967 0.71967,0.762 0.71967,1.98967 0,1.23825 -0.73025,2.00025 -0.67734,0.71966 -1.61925,0.71966 -0.94192,0 -1.37584,-0.56091 v 2.921 h -1.24883 v -7.65175 h 1.02658 z m 1.25942,3.46075 q 0.22225,0 0.45508,-0.0953 0.24342,-0.0952 0.43392,-0.29634 0.42333,-0.4445 0.42333,-1.18533 0,-0.75142 -0.37042,-1.17475 -0.35983,-0.42333 -0.889,-0.42333 -0.51858,0 -0.85725,0.30691 -0.32808,0.29634 -0.34925,0.85725 v 0.92075 q 0,0.49742 0.34925,0.80434 0.32809,0.28575 0.80434,0.28575 z"
         style="font-style:normal;font-variant:normal;font-weight:bold;font-stretch:normal;font-size:10.58333302px;font-family:Karla;-inkscape-font-specification:'Karla, Bold';font-variant-ligatures:normal;font-variant-caps:normal;font-variant-numeric:normal;font-feature-settings:normal;text-align:start;letter-spacing:-1.32291663px;writing-mode:lr-tb;text-anchor:start;fill:#11ec01;fill-opacity:1;stroke-width:0.26458332"
         id="path4572" />
      <path
         d="m 169.61378,268.67364 q 0.26458,0.33867 0.39158,0.78317 0.13759,0.4445 0.13759,0.81491 0,0.37042 -0.0423,0.66675 h -3.32316 q 0.0212,0.62442 0.30691,1.016 0.28575,0.39159 0.86784,0.39159 0.77258,0 0.92075,-0.67734 h 1.25941 q -0.127,0.77259 -0.70908,1.21709 -0.60325,0.46566 -1.47108,0.46566 -1.016,0 -1.70392,-0.74083 -0.70908,-0.77258 -0.70908,-1.97908 0,-1.23825 0.70908,-1.98967 0.67733,-0.71967 1.70392,-0.71967 1.06891,0 1.66158,0.75142 z m -1.651,0.24342 q -0.52917,0 -0.8255,0.34925 -0.29633,0.33866 -0.34925,0.87841 h 2.19075 q 0,-0.83608 -0.52917,-1.12183 -0.20108,-0.10583 -0.48683,-0.10583 z"
         style="font-style:normal;font-variant:normal;font-weight:bold;font-stretch:normal;font-size:10.58333302px;font-family:Karla;-inkscape-font-specification:'Karla, Bold';font-variant-ligatures:normal;font-variant-caps:normal;font-variant-numeric:normal;font-feature-settings:normal;text-align:start;letter-spacing:-1.32291663px;writing-mode:lr-tb;text-anchor:start;fill:#11ec01;fill-opacity:1;stroke-width:0.26458332"
         id="path4574" />
      <path
         d="m 172.26275,267.92222 q 0.48684,0 0.86784,0.16934 0.39158,0.15875 0.65616,0.42333 0.52917,0.508 0.62442,1.28058 l -1.25942,0.0317 q -0.0847,-0.33866 -0.3175,-0.56091 -0.22225,-0.22225 -0.51858,-0.22225 -0.29633,0 -0.508,0.0953 -0.21167,0.0847 -0.37042,0.27516 -0.35983,0.4445 -0.35983,1.22767 0,0.78317 0.33867,1.18533 0.33866,0.39159 0.81491,0.39159 0.48684,0 0.6985,-0.22225 0.22225,-0.23284 0.22225,-0.62442 h 1.25942 q 0,0.84667 -0.56092,1.40758 -0.5715,0.5715 -1.59808,0.5715 -1.016,0 -1.70392,-0.74083 -0.73025,-0.79375 -0.73025,-1.97908 0,-1.24884 0.73025,-2.00025 0.68792,-0.70909 1.7145,-0.70909 z"
         style="font-style:normal;font-variant:normal;font-weight:bold;font-stretch:normal;font-size:10.58333302px;font-family:Karla;-inkscape-font-specification:'Karla, Bold';font-variant-ligatures:normal;font-variant-caps:normal;font-variant-numeric:normal;font-feature-settings:normal;text-align:start;letter-spacing:-1.32291663px;writing-mode:lr-tb;text-anchor:start;fill:#11ec01;fill-opacity:1;stroke-width:0.26458332"
         id="path4576" />
      <path
         d="m 174.68948,268.04922 h 1.24883 v 5.15409 h -1.24883 z m -0.14817,-1.651 q 0,-0.33866 0.20109,-0.52916 0.20108,-0.20109 0.5715,-0.20109 0.35983,0 0.56091,0.20109 0.21167,0.1905 0.21167,0.52916 0,0.33867 -0.21167,0.53975 -0.20108,0.1905 -0.56091,0.1905 -0.37042,0 -0.5715,-0.1905 -0.20109,-0.20108 -0.20109,-0.53975 z"
         style="font-style:normal;font-variant:normal;font-weight:bold;font-stretch:normal;font-size:10.58333302px;font-family:Karla;-inkscape-font-specification:'Karla, Bold';font-variant-ligatures:normal;font-variant-caps:normal;font-variant-numeric:normal;font-feature-settings:normal;text-align:start;letter-spacing:-1.32291663px;writing-mode:lr-tb;text-anchor:start;fill:#11ec01;fill-opacity:1;stroke-width:0.26458332"
         id="path4578" />
      <path
         d="m 178.42672,270.19764 q 0.61383,0 1.41817,0.20108 v -0.508 q 0,-0.53975 -0.22225,-0.79375 -0.21167,-0.26458 -0.70909,-0.26458 -0.48683,0 -0.75141,0.20108 -0.26459,0.1905 -0.26459,0.55034 h -1.36525 q 0,-0.87842 0.61384,-1.27 0.62441,-0.39159 1.73566,-0.39159 1.5875,0 2.05317,1.11125 0.15875,0.381 0.15875,0.89959 v 3.27025 h -1.09008 l -0.0952,-0.68792 q -0.49742,0.83608 -1.524,0.83608 -0.99484,0 -1.54517,-0.48683 -0.508,-0.46567 -0.508,-1.17475 0,-0.71967 0.56092,-1.10067 0.56091,-0.39158 1.53458,-0.39158 z m 1.41817,0.99483 q -0.62442,-0.16933 -1.16417,-0.16933 -1.016,0 -1.016,0.67733 0,0.28575 0.23283,0.49742 0.23284,0.20108 0.74084,0.20108 0.51858,0 0.84666,-0.33866 0.33867,-0.34925 0.35984,-0.86784 z"
         style="font-style:normal;font-variant:normal;font-weight:bold;font-stretch:normal;font-size:10.58333302px;font-family:Karla;-inkscape-font-specification:'Karla, Bold';font-variant-ligatures:normal;font-variant-caps:normal;font-variant-numeric:normal;font-feature-settings:normal;text-align:start;letter-spacing:-1.32291663px;writing-mode:lr-tb;text-anchor:start;fill:#11ec01;fill-opacity:1;stroke-width:0.26458332"
         id="path4580" />
      <path
         d="m 181.59097,265.94314 h 1.24883 v 7.26017 h -1.24883 z"
         style="font-style:normal;font-variant:normal;font-weight:bold;font-stretch:normal;font-size:10.58333302px;font-family:Karla;-inkscape-font-specification:'Karla, Bold';font-variant-ligatures:normal;font-variant-caps:normal;font-variant-numeric:normal;font-feature-settings:normal;text-align:start;letter-spacing:-1.32291663px;writing-mode:lr-tb;text-anchor:start;fill:#11ec01;fill-opacity:1;stroke-width:0.26458332"
         id="path4582" />
      <path
         d="m 183.5985,268.04922 h 1.24883 v 5.15409 h -1.24883 z m -0.14817,-1.651 q 0,-0.33866 0.20109,-0.52916 0.20108,-0.20109 0.5715,-0.20109 0.35983,0 0.56091,0.20109 0.21167,0.1905 0.21167,0.52916 0,0.33867 -0.21167,0.53975 -0.20108,0.1905 -0.56091,0.1905 -0.37042,0 -0.5715,-0.1905 -0.20109,-0.20108 -0.20109,-0.53975 z"
         style="font-style:normal;font-variant:normal;font-weight:bold;font-stretch:normal;font-size:10.58333302px;font-family:Karla;-inkscape-font-specification:'Karla, Bold';font-variant-ligatures:normal;font-variant-caps:normal;font-variant-numeric:normal;font-feature-settings:normal;text-align:start;letter-spacing:-1.32291663px;writing-mode:lr-tb;text-anchor:start;fill:#11ec01;fill-opacity:1;stroke-width:0.26458332"
         id="path4584" />
      <path
         d="m 186.3409,271.63697 q 0.0212,0.73025 1.06892,0.73025 0.40216,0 0.65616,-0.16933 0.26459,-0.17992 0.26459,-0.41275 0,-0.23283 -0.15875,-0.35983 -0.15875,-0.127 -0.49742,-0.23284 l -1.12183,-0.40216 q -1.24884,-0.43392 -1.24884,-1.41817 0,-0.65617 0.58209,-1.04775 0.59266,-0.40217 1.57691,-0.40217 0.99484,0 1.524,0.43392 0.53975,0.43392 0.56092,1.09008 h -1.17475 q -0.0212,-0.254 -0.24342,-0.40216 -0.22225,-0.14817 -0.635,-0.14817 -0.41275,0 -0.64558,0.16933 -0.22225,0.15875 -0.22225,0.37042 0,0.37042 0.62442,0.55033 l 1.21708,0.45509 q 0.60325,0.20108 0.92075,0.51858 0.32808,0.30692 0.32808,0.80433 0,0.635 -0.60325,1.10067 -0.62441,0.48683 -1.651,0.48683 -1.02658,0 -1.651,-0.4445 -0.62441,-0.45508 -0.635,-1.27 z"
         style="font-style:normal;font-variant:normal;font-weight:bold;font-stretch:normal;font-size:10.58333302px;font-family:Karla;-inkscape-font-specification:'Karla, Bold';font-variant-ligatures:normal;font-variant-caps:normal;font-variant-numeric:normal;font-feature-settings:normal;text-align:start;letter-spacing:-1.32291663px;writing-mode:lr-tb;text-anchor:start;fill:#11ec01;fill-opacity:1;stroke-width:0.26458332"
         id="path4586" />
      <path
         d="m 192.80037,273.07631 q -0.6985,0.27516 -1.10066,0.27516 -0.40217,0 -0.70909,-0.0953 -0.29633,-0.0952 -0.52916,-0.28575 -0.48684,-0.43391 -0.48684,-1.19591 v -2.87867 h -0.71966 v -0.83608 h 0.71966 v -1.35467 h 1.24884 v 1.35467 h 1.397 v 0.83608 h -1.397 v 2.83633 q 0,0.635 0.60325,0.635 0.30691,0 0.79375,-0.16933 z"
         style="font-style:normal;font-variant:normal;font-weight:bold;font-stretch:normal;font-size:10.58333302px;font-family:Karla;-inkscape-font-specification:'Karla, Bold';font-variant-ligatures:normal;font-variant-caps:normal;font-variant-numeric:normal;font-feature-settings:normal;text-align:start;letter-spacing:-1.32291663px;writing-mode:lr-tb;text-anchor:start;fill:#11ec01;fill-opacity:1;stroke-width:0.26458332"
         id="path4588" />
    </g>
    <g
       aria-label="Homepage of"
       style="font-style:normal;font-variant:normal;font-weight:bold;font-stretch:normal;font-size:10.58333302px;line-height:1.25;font-family:Karla;-inkscape-font-specification:'Karla, Bold';font-variant-ligatures:normal;font-variant-caps:normal;font-variant-numeric:normal;font-feature-settings:normal;text-align:start;letter-spacing:0px;word-spacing:0px;writing-mode:lr-tb;text-anchor:start;fill:#11ec01;fill-opacity:1;stroke:none;stroke-width:0.26458332"
       id="text4488"
       transform="translate(0.2645809,-0.26460469)">
      <path
         d="m 41.215734,214.77284 v 7.0358 h 7.8486 v -7.0358 h 2.0066 v 15.9766 h -2.0066 v -7.2136 h -7.8486 v 7.2136 h -2.0066 v -15.9766 z"
         style="font-style:normal;font-variant:normal;font-weight:normal;font-stretch:normal;font-size:25.39999962px;font-family:Karla;-inkscape-font-specification:'Karla, Normal';font-variant-ligatures:normal;font-variant-caps:normal;font-variant-numeric:normal;font-feature-settings:normal;text-align:start;letter-spacing:-3.17499995px;writing-mode:lr-tb;text-anchor:start;fill:#11ec01;fill-opacity:1;stroke-width:0.26458332"
         id="path4494"
         inkscape:connector-curvature="0" />
      <path
         d="m 57.41895,218.30344 q 2.54,0 4.0894,1.651 1.5748,1.651 1.5748,4.7244 0,3.048 -1.5748,4.699 -1.5494,1.651 -4.0894,1.651 -2.54,0 -4.1148,-1.651 -1.5494,-1.651 -1.5494,-4.699 0,-3.0734 1.5494,-4.7244 1.5748,-1.651 4.1148,-1.651 z m 3.6322,6.3754 q 0,-2.1844 -0.9144,-3.4036 -0.9144,-1.2446 -2.6924,-1.2446 -1.7526,0 -2.6924,1.2446 -0.9398,1.2192 -0.9398,3.4036 0,2.159 0.889,3.4036 0.889,1.2192 2.6416,1.2192 1.778,0 2.7432,-1.2192 0.9652,-1.2446 0.9652,-3.4036 z"
         style="font-style:normal;font-variant:normal;font-weight:normal;font-stretch:normal;font-size:25.39999962px;font-family:Karla;-inkscape-font-specification:'Karla, Normal';font-variant-ligatures:normal;font-variant-caps:normal;font-variant-numeric:normal;font-feature-settings:normal;text-align:start;letter-spacing:-3.17499995px;writing-mode:lr-tb;text-anchor:start;fill:#11ec01;fill-opacity:1;stroke-width:0.26458332"
         id="path4496"
         inkscape:connector-curvature="0" />
      <path
         d="m 65.696175,220.94504 q 1.1938,-2.6416 4.089399,-2.6416 1.5748,0 2.6416,0.7874 1.0668,0.762 1.5494,2.1336 1.143,-2.921 4.2418,-2.921 2.1844,0 3.3782,1.4224 1.1938,1.4224 1.1938,3.8862 v 7.1374 h -1.9812 v -7.1374 q 0,-1.7526 -0.8382,-2.6416 -0.8128,-0.889 -2.3622,-0.889 -1.5494,0 -2.413,1.27 -0.8382,1.27 -0.8382,3.5052 v 5.8928 h -1.9812 v -7.1374 q 0,-1.7526 -0.8382,-2.6416 -0.8128,-0.889 -2.3368,-0.889 -1.523999,0 -2.463799,1.2446 -0.9398,1.2446 -0.9906,3.4544 v 5.969 h -2.0066 v -12.1412 h 1.7272 z"
         style="font-style:normal;font-variant:normal;font-weight:normal;font-stretch:normal;font-size:25.39999962px;font-family:Karla;-inkscape-font-specification:'Karla, Normal';font-variant-ligatures:normal;font-variant-caps:normal;font-variant-numeric:normal;font-feature-settings:normal;text-align:start;letter-spacing:-3.17499995px;writing-mode:lr-tb;text-anchor:start;fill:#11ec01;fill-opacity:1;stroke-width:0.26458332"
         id="path4498"
         inkscape:connector-curvature="0" />
      <path
         d="m 88.544665,229.40324 q 2.5146,0 2.8702,-2.2098 h 2.0574 q -0.2794,1.8288 -1.6256,2.8448 -1.3208,0.9906 -3.302,0.9906 -2.4384,0 -3.9624,-1.7272 -1.524,-1.7526 -1.524,-4.6482 0,-2.8956 1.524,-4.6228 1.5494,-1.7272 4.0894,-1.7272 2.5654,0 3.81,1.9812 1.27,1.9812 0.889,4.826 h -8.3058 q 0,1.8796 0.9144,3.0988 0.9144,1.1938 2.5654,1.1938 z m 1.4732,-9.1948 q -0.5842,-0.3048 -1.4224,-0.3048 -1.5494,0 -2.4638,1.0668 -0.889,1.0414 -1.0414,2.6162 h 6.477 q 0,-2.54 -1.5494,-3.3782 z"
         style="font-style:normal;font-variant:normal;font-weight:normal;font-stretch:normal;font-size:25.39999962px;font-family:Karla;-inkscape-font-specification:'Karla, Normal';font-variant-ligatures:normal;font-variant-caps:normal;font-variant-numeric:normal;font-feature-settings:normal;text-align:start;letter-spacing:-3.17499995px;writing-mode:lr-tb;text-anchor:start;fill:#11ec01;fill-opacity:1;stroke-width:0.26458332"
         id="path4500"
         inkscape:connector-curvature="0" />
      <path
         d="m 96.15514,220.46244 q 1.1938,-2.159 3.556,-2.159 2.3876,0 3.9624,1.7526 1.6002,1.7526 1.6002,4.6228 0,2.8702 -1.6002,4.6228 -1.6002,1.7272 -3.937,1.7272 -2.3368,0 -3.4544,-1.7526 v 7.4422 h -2.0066 v -18.1102 h 1.651 z m 3.4798,8.7884 q 1.4224,0 2.4892,-1.2192 1.0922,-1.2192 1.0922,-3.3274 0,-2.1336 -1.0414,-3.3782 -1.016,-1.2446 -2.4892,-1.2446 -1.4732,0 -2.413,0.9398 -0.9398,0.9144 -0.9906,2.4892 v 2.3114 q 0,1.6002 0.9652,2.5146 0.9652,0.9144 2.3876,0.9144 z"
         style="font-style:normal;font-variant:normal;font-weight:normal;font-stretch:normal;font-size:25.39999962px;font-family:Karla;-inkscape-font-specification:'Karla, Normal';font-variant-ligatures:normal;font-variant-caps:normal;font-variant-numeric:normal;font-feature-settings:normal;text-align:start;letter-spacing:-3.17499995px;writing-mode:lr-tb;text-anchor:start;fill:#11ec01;fill-opacity:1;stroke-width:0.26458332"
         id="path4502"
         inkscape:connector-curvature="0" />
      <path
         d="m 113.70019,222.87544 q 0,-1.651 -0.6858,-2.3622 -0.6858,-0.7112 -2.0066,-0.7112 -1.2954,0 -2.1082,0.5334 -0.7874,0.508 -0.7874,1.6256 h -2.2098 q 0,-2.794 2.9972,-3.4544 0.9144,-0.2032 1.9812,-0.2032 2.2606,0 3.5306,1.143 1.27,1.143 1.27,3.4798 v 7.8232 h -1.7272 l -0.2032,-2.032 q -1.1176,2.3114 -4.0386,2.3114 -1.9558,0 -3.1496,-1.0922 -1.1684,-1.0922 -1.1684,-2.7178 0,-1.6256 1.2954,-2.54 1.3208,-0.9144 3.2766,-0.9144 1.9558,0 3.7338,0.6604 z m 0,2.8194 q -1.8034,-0.508 -3.1496,-0.508 -1.3462,0 -2.1844,0.4826 -0.8382,0.4826 -0.8382,1.524 0,2.286 2.5908,2.286 1.4732,0 2.5146,-1.0414 1.0668,-1.0668 1.0668,-2.7432 z"
         style="font-style:normal;font-variant:normal;font-weight:normal;font-stretch:normal;font-size:25.39999962px;font-family:Karla;-inkscape-font-specification:'Karla, Normal';font-variant-ligatures:normal;font-variant-caps:normal;font-variant-numeric:normal;font-feature-settings:normal;text-align:start;letter-spacing:-3.17499995px;writing-mode:lr-tb;text-anchor:start;fill:#11ec01;fill-opacity:1;stroke-width:0.26458332"
         id="path4504"
         inkscape:connector-curvature="0" />
      <path
         d="m 117.75268,230.36844 q -1.524,-0.7366 -1.524,-2.2606 0,-0.7874 0.5842,-1.3716 0.6096,-0.6096 1.4986,-0.8128 -1.3716,-1.2192 -1.3716,-3.2004 0,-1.9812 1.397,-3.2004 1.4224,-1.2192 3.3528,-1.2192 1.9304,0 3.2766,0.9144 0.1778,-1.3462 1.0668,-2.159 0.9144,-0.8128 2.3876,-0.8128 l -0.1778,1.9812 q -2.2352,0 -2.3368,1.8796 0.889,1.0922 0.889,2.6162 0,1.9558 -1.4224,3.2258 -1.397,1.2446 -3.5052,1.2446 -1.4478,0 -2.5654,-0.5842 -0.508,0.1016 -0.9144,0.4826 -0.4064,0.3556 -0.4064,0.9906 0,1.3462 2.2352,1.3462 h 4.7244 q 1.7018,0 2.6924,0.7366 0.9906,0.7112 0.9906,2.0066 0,1.9304 -1.9558,3.3782 -1.9304,1.4478 -4.9022,1.4478 -2.9718,0 -4.6736,-1.1176 -1.7018,-1.0922 -1.7018,-2.7686 0,-1.0922 0.635,-1.778 0.6604,-0.6858 1.7272,-0.9652 z m -0.381,2.667 q 0,0.9652 1.0414,1.651 1.0668,0.7112 3.2004,0.7112 2.159,0 3.5814,-0.9398 1.4478,-0.9144 1.4478,-2.159 0,-0.5842 -0.4318,-1.016 -0.4064,-0.4064 -1.27,-0.4064 h -4.9022 q -1.2954,0.0508 -1.9812,0.6096 -0.6858,0.5842 -0.6858,1.5494 z m 7.4676,-10.3124 q 0,-1.3208 -0.7874,-2.1336 -0.7874,-0.8382 -2.1844,-0.8382 -1.3716,0 -2.159,0.8382 -0.7874,0.8128 -0.7874,2.1336 0,1.3208 0.7874,2.1844 0.8128,0.8382 2.1844,0.8382 1.3716,0 2.159,-0.8636 0.7874,-0.8636 0.7874,-2.159 z"
         style="font-style:normal;font-variant:normal;font-weight:normal;font-stretch:normal;font-size:25.39999962px;font-family:Karla;-inkscape-font-specification:'Karla, Normal';font-variant-ligatures:normal;font-variant-caps:normal;font-variant-numeric:normal;font-feature-settings:normal;text-align:start;letter-spacing:-3.17499995px;writing-mode:lr-tb;text-anchor:start;fill:#11ec01;fill-opacity:1;stroke-width:0.26458332"
         id="path4506"
         inkscape:connector-curvature="0" />
      <path
         d="m 132.59779,229.40324 q 2.5146,0 2.8702,-2.2098 h 2.0574 q -0.2794,1.8288 -1.6256,2.8448 -1.3208,0.9906 -3.302,0.9906 -2.4384,0 -3.9624,-1.7272 -1.524,-1.7526 -1.524,-4.6482 0,-2.8956 1.524,-4.6228 1.5494,-1.7272 4.0894,-1.7272 2.5654,0 3.81,1.9812 1.27,1.9812 0.889,4.826 h -8.3058 q 0,1.8796 0.9144,3.0988 0.9144,1.1938 2.5654,1.1938 z m 1.4732,-9.1948 q -0.5842,-0.3048 -1.4224,-0.3048 -1.5494,0 -2.4638,1.0668 -0.889,1.0414 -1.0414,2.6162 h 6.477 q 0,-2.54 -1.5494,-3.3782 z"
         style="font-style:normal;font-variant:normal;font-weight:normal;font-stretch:normal;font-size:25.39999962px;font-family:Karla;-inkscape-font-specification:'Karla, Normal';font-variant-ligatures:normal;font-variant-caps:normal;font-variant-numeric:normal;font-feature-settings:normal;text-align:start;letter-spacing:-3.17499995px;writing-mode:lr-tb;text-anchor:start;fill:#11ec01;fill-opacity:1;stroke-width:0.26458332"
         id="path4508"
         inkscape:connector-curvature="0" />
      <path
         d="m 145.57481,218.30344 q 2.54,0 4.0894,1.651 1.5748,1.651 1.5748,4.7244 0,3.048 -1.5748,4.699 -1.5494,1.651 -4.0894,1.651 -2.54,0 -4.1148,-1.651 -1.5494,-1.651 -1.5494,-4.699 0,-3.0734 1.5494,-4.7244 1.5748,-1.651 4.1148,-1.651 z m 3.6322,6.3754 q 0,-2.1844 -0.9144,-3.4036 -0.9144,-1.2446 -2.6924,-1.2446 -1.7526,0 -2.6924,1.2446 -0.9398,1.2192 -0.9398,3.4036 0,2.159 0.889,3.4036 0.889,1.2192 2.6416,1.2192 1.778,0 2.7432,-1.2192 0.9652,-1.2446 0.9652,-3.4036 z"
         style="font-style:normal;font-variant:normal;font-weight:normal;font-stretch:normal;font-size:25.39999962px;font-family:Karla;-inkscape-font-specification:'Karla, Normal';font-variant-ligatures:normal;font-variant-caps:normal;font-variant-numeric:normal;font-feature-settings:normal;text-align:start;letter-spacing:-3.17499995px;writing-mode:lr-tb;text-anchor:start;fill:#11ec01;fill-opacity:1;stroke-width:0.26458332"
         id="path4510"
         inkscape:connector-curvature="0" />
      <path
         d="m 157.81444,215.15384 q -0.8382,-0.3302 -1.3208,-0.3302 -0.889,0 -1.397,0.4318 -0.508,0.4318 -0.508,1.524 v 1.8288 h 2.5146 v 1.3716 h -2.5146 v 10.7696 h -1.9812 v -10.7696 h -2.0066 v -1.3716 h 2.0066 v -1.8542 q 0,-1.8034 0.9906,-2.6416 0.9906,-0.8636 2.286,-0.8636 1.2954,0 2.286,0.3302 z"
         style="font-style:normal;font-variant:normal;font-weight:normal;font-stretch:normal;font-size:25.39999962px;font-family:Karla;-inkscape-font-specification:'Karla, Normal';font-variant-ligatures:normal;font-variant-caps:normal;font-variant-numeric:normal;font-feature-settings:normal;text-align:start;letter-spacing:-3.17499995px;writing-mode:lr-tb;text-anchor:start;fill:#11ec01;fill-opacity:1;stroke-width:0.26458332"
         id="path4512"
         inkscape:connector-curvature="0" />
    </g>
    <g
       aria-label="Craig Allison"
       style="font-style:normal;font-variant:normal;font-weight:bold;font-stretch:normal;font-size:10.58333302px;line-height:1.25;font-family:Karla;-inkscape-font-specification:'Karla, Bold';font-variant-ligatures:normal;font-variant-caps:normal;font-variant-numeric:normal;font-feature-settings:normal;text-align:start;letter-spacing:0px;word-spacing:0px;writing-mode:lr-tb;text-anchor:start;fill:#11ec01;fill-opacity:1;stroke:none;stroke-width:0.26458332"
       id="text4492"
       transform="translate(0.2645809,-0.26460469)">
      <path
         d="m 14.643088,234.10494 q 2.751667,0 4.769556,0.68792 2.017888,0.64205 3.485444,1.83444 2.88925,2.33892 3.760611,6.55814 l -5.7785,1.05481 q -0.733778,-2.33892 -2.293055,-3.76061 -1.513417,-1.46756 -3.806473,-1.46756 -3.118555,0 -5.0447217,2.61408 -2.06375,2.84339 -2.06375,7.88811 0,4.99887 1.8344444,7.84225 1.8344443,2.79753 4.9988613,2.79753 3.164416,0 4.769555,-1.51341 1.605139,-1.55928 1.605139,-3.98992 h 5.824361 q 0,4.99886 -3.210278,7.75053 -3.164416,2.7058 -8.713611,2.7058 -5.9160828,0 -9.4015272,-4.1275 -3.5313056,-4.21922 -3.5313056,-11.46528 0,-7.33777 3.6230278,-11.46527 3.4854444,-3.94406 9.172222,-3.94406 z"
         style="font-style:normal;font-variant:normal;font-weight:bold;font-stretch:normal;font-size:45.86111069px;font-family:Karla;-inkscape-font-specification:'Karla, Bold';font-variant-ligatures:normal;font-variant-caps:normal;font-variant-numeric:normal;font-feature-settings:normal;text-align:start;letter-spacing:-6.61458349px;writing-mode:lr-tb;text-anchor:start;fill:#11ec01;fill-opacity:1;stroke-width:0.26458332"
         id="path4515"
         inkscape:connector-curvature="0" />
      <path
         d="m 31.865534,246.57916 q 2.017889,-4.81541 6.053666,-4.81541 0.779639,0 1.972028,0.32102 l -0.09172,5.41162 q -1.284111,-0.27517 -2.522361,-0.27517 -5.411611,0 -5.411611,7.47536 v 9.76842 h -5.411611 v -22.33436 h 5.411611 z"
         style="font-style:normal;font-variant:normal;font-weight:bold;font-stretch:normal;font-size:45.86111069px;font-family:Karla;-inkscape-font-specification:'Karla, Bold';font-variant-ligatures:normal;font-variant-caps:normal;font-variant-numeric:normal;font-feature-settings:normal;text-align:start;letter-spacing:-6.61458349px;writing-mode:lr-tb;text-anchor:start;fill:#11ec01;fill-opacity:1;stroke-width:0.26458332"
         id="path4517"
         inkscape:connector-curvature="0" />
      <path
         d="m 46.256058,251.44044 q 2.659944,0 6.145389,0.87136 v -2.20133 q 0,-2.33892 -0.963084,-3.43958 -0.917222,-1.14653 -3.072694,-1.14653 -2.109611,0 -3.256139,0.87136 -1.146528,0.8255 -1.146528,2.38478 h -5.916083 q 0,-3.80648 2.659944,-5.50334 2.705806,-1.69686 7.521222,-1.69686 6.879167,0 8.897056,4.81542 0.687917,1.651 0.687917,3.89819 V 264.465 h -4.723695 l -0.41275,-2.98098 q -2.155472,3.62303 -6.604,3.62303 -4.310944,0 -6.695722,-2.10961 -2.201333,-2.01789 -2.201333,-5.09058 0,-3.11856 2.430639,-4.76956 2.430639,-1.69686 6.649861,-1.69686 z m 6.145389,4.31095 q -2.705806,-0.73378 -5.044723,-0.73378 -4.402666,0 -4.402666,2.93511 0,1.23825 1.008944,2.15547 1.008945,0.87136 3.210278,0.87136 2.247194,0 3.668889,-1.46755 1.467555,-1.51342 1.559278,-3.76061 z"
         style="font-style:normal;font-variant:normal;font-weight:bold;font-stretch:normal;font-size:45.86111069px;font-family:Karla;-inkscape-font-specification:'Karla, Bold';font-variant-ligatures:normal;font-variant-caps:normal;font-variant-numeric:normal;font-feature-settings:normal;text-align:start;letter-spacing:-6.61458349px;writing-mode:lr-tb;text-anchor:start;fill:#11ec01;fill-opacity:1;stroke-width:0.26458332"
         id="path4519"
         inkscape:connector-curvature="0" />
      <path
         d="m 59.544478,242.13064 h 5.411611 V 264.465 h -5.411611 z m -0.642055,-7.15434 q 0,-1.46755 0.871361,-2.29305 0.871361,-0.87136 2.4765,-0.87136 1.559278,0 2.430639,0.87136 0.917222,0.8255 0.917222,2.29305 0,1.46756 -0.917222,2.33892 -0.871361,0.8255 -2.430639,0.8255 -1.605139,0 -2.4765,-0.8255 -0.871361,-0.87136 -0.871361,-2.33892 z"
         style="font-style:normal;font-variant:normal;font-weight:bold;font-stretch:normal;font-size:45.86111069px;font-family:Karla;-inkscape-font-specification:'Karla, Bold';font-variant-ligatures:normal;font-variant-caps:normal;font-variant-numeric:normal;font-feature-settings:normal;text-align:start;letter-spacing:-6.61458349px;writing-mode:lr-tb;text-anchor:start;fill:#11ec01;fill-opacity:1;stroke-width:0.26458332"
         id="path4521"
         inkscape:connector-curvature="0" />
      <path
         d="m 69.445628,255.33864 q -2.705806,-2.29306 -2.705806,-5.73264 0,-3.62303 2.843389,-5.87023 2.751667,-2.15547 6.282972,-2.15547 3.577167,0 5.961945,1.32997 0.275166,-2.61408 2.247194,-4.21922 1.926167,-1.60514 4.54025,-1.60514 l -0.275167,5.18231 q -3.944055,0 -4.081639,2.61408 1.696862,2.10961 1.696862,4.31095 0,2.20133 -0.779639,3.71475 -0.779639,1.46755 -2.109611,2.4765 -2.751667,2.20133 -6.695723,2.20133 -2.247194,0 -4.081638,-0.68792 -1.834445,0.55034 -1.834445,2.20134 0,2.06375 3.485445,2.06375 h 7.475361 q 7.612944,0 7.612944,5.31989 0,1.78858 -0.917222,3.48544 -0.871361,1.74272 -2.568222,3.07269 -3.760612,2.93512 -9.447389,2.93512 -5.503334,0 -8.942917,-2.2472 -3.210278,-2.15547 -3.210278,-5.27403 0,-2.06375 1.23825,-3.302 1.284112,-1.19239 3.347861,-1.51341 -2.705805,-1.651 -2.705805,-4.08164 0,-1.60514 1.008944,-2.65995 1.008945,-1.10066 2.614084,-1.55927 z m 4.1275,9.63083 q -4.310945,0.18344 -4.310945,3.25614 0,1.55928 1.788584,2.4765 1.834444,0.96308 4.310944,0.96308 2.4765,0 3.852333,-0.41275 1.421695,-0.41275 2.384778,-1.10067 2.06375,-1.37583 2.06375,-3.302 0,-0.8255 -0.596194,-1.37583 -0.550334,-0.50447 -1.651,-0.50447 z m 7.01675,-15.40933 q 0,-1.88031 -1.054806,-3.02684 -1.008944,-1.19239 -3.118555,-1.19239 -2.109612,0 -3.210278,1.19239 -1.100667,1.14653 -1.100667,3.02684 0,1.83444 1.100667,3.02683 1.100666,1.19239 3.210278,1.19239 2.109611,0 3.118555,-1.19239 1.054806,-1.19239 1.054806,-3.02683 z"
         style="font-style:normal;font-variant:normal;font-weight:bold;font-stretch:normal;font-size:45.86111069px;font-family:Karla;-inkscape-font-specification:'Karla, Bold';font-variant-ligatures:normal;font-variant-caps:normal;font-variant-numeric:normal;font-feature-settings:normal;text-align:start;letter-spacing:-6.61458349px;writing-mode:lr-tb;text-anchor:start;fill:#11ec01;fill-opacity:1;stroke-width:0.26458332"
         id="path4523"
         inkscape:connector-curvature="0" />
      <path
         d="m 99.506484,234.70114 h 6.787446 l 9.76842,29.76386 h -5.73264 l -2.06375,-6.42056 H 97.213429 l -2.109611,6.42056 h -5.732639 z m -0.917222,19.26166 h 8.346718 l -4.1275,-12.79525 z"
         style="font-style:normal;font-variant:normal;font-weight:bold;font-stretch:normal;font-size:45.86111069px;font-family:Karla;-inkscape-font-specification:'Karla, Bold';font-variant-ligatures:normal;font-variant-caps:normal;font-variant-numeric:normal;font-feature-settings:normal;text-align:start;letter-spacing:-6.61458349px;writing-mode:lr-tb;text-anchor:start;fill:#11ec01;fill-opacity:1;stroke-width:0.26458332"
         id="path4525"
         inkscape:connector-curvature="0" />
      <path
         d="m 114.7655,233.00427 h 5.41161 V 264.465 h -5.41161 z"
         style="font-style:normal;font-variant:normal;font-weight:bold;font-stretch:normal;font-size:45.86111069px;font-family:Karla;-inkscape-font-specification:'Karla, Bold';font-variant-ligatures:normal;font-variant-caps:normal;font-variant-numeric:normal;font-feature-settings:normal;text-align:start;letter-spacing:-6.61458349px;writing-mode:lr-tb;text-anchor:start;fill:#11ec01;fill-opacity:1;stroke-width:0.26458332"
         id="path4527"
         inkscape:connector-curvature="0" />
      <path
         d="m 122.12423,233.00427 h 5.41161 V 264.465 h -5.41161 z"
         style="font-style:normal;font-variant:normal;font-weight:bold;font-stretch:normal;font-size:45.86111069px;font-family:Karla;-inkscape-font-specification:'Karla, Bold';font-variant-ligatures:normal;font-variant-caps:normal;font-variant-numeric:normal;font-feature-settings:normal;text-align:start;letter-spacing:-6.61458349px;writing-mode:lr-tb;text-anchor:start;fill:#11ec01;fill-opacity:1;stroke-width:0.26458332"
         id="path4529"
         inkscape:connector-curvature="0" />
      <path
         d="m 129.94156,242.13064 h 5.41161 V 264.465 h -5.41161 z m -0.64206,-7.15434 q 0,-1.46755 0.87136,-2.29305 0.87136,-0.87136 2.4765,-0.87136 1.55928,0 2.43064,0.87136 0.91722,0.8255 0.91722,2.29305 0,1.46756 -0.91722,2.33892 -0.87136,0.8255 -2.43064,0.8255 -1.60514,0 -2.4765,-0.8255 -0.87136,-0.87136 -0.87136,-2.33892 z"
         style="font-style:normal;font-variant:normal;font-weight:bold;font-stretch:normal;font-size:45.86111069px;font-family:Karla;-inkscape-font-specification:'Karla, Bold';font-variant-ligatures:normal;font-variant-caps:normal;font-variant-numeric:normal;font-feature-settings:normal;text-align:start;letter-spacing:-6.61458349px;writing-mode:lr-tb;text-anchor:start;fill:#11ec01;fill-opacity:1;stroke-width:0.26458332"
         id="path4531"
         inkscape:connector-curvature="0" />
      <path
         d="m 140.94337,257.67755 q 0.0917,3.16442 4.63198,3.16442 1.74272,0 2.84338,-0.73378 1.14653,-0.77964 1.14653,-1.78858 0,-1.00895 -0.68791,-1.55928 -0.68792,-0.55033 -2.15548,-1.00894 l -4.86127,-1.74273 q -5.41162,-1.8803 -5.41162,-6.14539 0,-2.84338 2.52237,-4.54025 2.56822,-1.74272 6.8333,-1.74272 4.31095,0 6.604,1.88031 2.33892,1.8803 2.43064,4.72369 h -5.09058 q -0.0917,-1.10066 -1.05481,-1.74272 -0.96308,-0.64206 -2.75167,-0.64206 -1.78858,0 -2.79752,0.73378 -0.96309,0.68792 -0.96309,1.60514 0,1.60514 2.70581,2.38478 l 5.27403,1.97203 q 2.61408,0.87136 3.98991,2.24719 1.4217,1.32997 1.4217,3.48545 0,2.75166 -2.61409,4.76955 -2.7058,2.10961 -7.15433,2.10961 -4.44853,0 -7.15433,-1.92616 -2.70581,-1.97203 -2.75167,-5.50334 z"
         style="font-style:normal;font-variant:normal;font-weight:bold;font-stretch:normal;font-size:45.86111069px;font-family:Karla;-inkscape-font-specification:'Karla, Bold';font-variant-ligatures:normal;font-variant-caps:normal;font-variant-numeric:normal;font-feature-settings:normal;text-align:start;letter-spacing:-6.61458349px;writing-mode:lr-tb;text-anchor:start;fill:#11ec01;fill-opacity:1;stroke-width:0.26458332"
         id="path4533"
         inkscape:connector-curvature="0" />
      <path
         d="m 164.246,241.5803 q 2.2472,0 4.21923,0.73378 1.97202,0.68792 3.39372,2.15547 3.16442,3.21028 3.16442,8.89706 0,5.59505 -3.16442,8.80533 -2.84339,2.93511 -7.61295,2.93511 -4.76955,0 -7.70466,-2.93511 -3.16442,-3.16442 -3.16442,-8.80533 0,-5.73264 3.16442,-8.89706 2.88925,-2.88925 7.70466,-2.88925 z m 5.36575,11.74045 q 0,-3.53131 -1.37583,-5.27403 -1.37583,-1.78858 -3.85233,-1.78858 -2.43064,0 -3.98992,1.78858 -1.55928,1.74272 -1.55928,5.27403 0,3.5313 1.37584,5.31989 1.42169,1.74272 3.85233,1.74272 2.43064,0 3.98992,-1.74272 1.55927,-1.78859 1.55927,-5.31989 z"
         style="font-style:normal;font-variant:normal;font-weight:bold;font-stretch:normal;font-size:45.86111069px;font-family:Karla;-inkscape-font-specification:'Karla, Bold';font-variant-ligatures:normal;font-variant-caps:normal;font-variant-numeric:normal;font-feature-settings:normal;text-align:start;letter-spacing:-6.61458349px;writing-mode:lr-tb;text-anchor:start;fill:#11ec01;fill-opacity:1;stroke-width:0.26458332"
         id="path4535"
         inkscape:connector-curvature="0" />
      <path
         d="m 180.16786,246.02883 q 2.20133,-4.44853 7.06261,-4.44853 4.1275,0 6.19125,2.70581 2.10961,2.7058 2.10961,7.15433 V 264.465 h -5.41161 v -13.02456 q 0,-2.4765 -1.19239,-3.71475 -1.19239,-1.28411 -3.34786,-1.28411 -2.15547,0 -3.71475,1.92617 -1.51342,1.92616 -1.60514,5.7785 V 264.465 h -5.41161 v -22.2885 h 4.72369 z"
         style="font-style:normal;font-variant:normal;font-weight:bold;font-stretch:normal;font-size:45.86111069px;font-family:Karla;-inkscape-font-specification:'Karla, Bold';font-variant-ligatures:normal;font-variant-caps:normal;font-variant-numeric:normal;font-feature-settings:normal;text-align:start;letter-spacing:-6.61458349px;writing-mode:lr-tb;text-anchor:start;fill:#11ec01;fill-opacity:1;stroke-width:0.26458332"
         id="path4537"
         inkscape:connector-curvature="0" />
    </g>
    <g
       aria-label="Homepage of"
       style="font-style:normal;font-variant:normal;font-weight:bold;font-stretch:normal;font-size:10.58333302px;line-height:1.25;font-family:Karla;-inkscape-font-specification:'Karla, Bold';font-variant-ligatures:normal;font-variant-caps:normal;font-variant-numeric:normal;font-feature-settings:normal;text-align:start;letter-spacing:0px;word-spacing:0px;writing-mode:lr-tb;text-anchor:start;fill:#24292e;fill-opacity:1;stroke:none;stroke-width:0.26458332"
       id="text4487"
       transform="translate(0.2645809,-0.26460469)">
      <path
         d="m 41.744901,214.24368 v 7.0358 h 7.8486 v -7.0358 h 2.0066 v 15.9766 h -2.0066 v -7.2136 h -7.8486 v 7.2136 h -2.0066 v -15.9766 z"
         style="font-style:normal;font-variant:normal;font-weight:normal;font-stretch:normal;font-size:25.39999962px;font-family:Karla;-inkscape-font-specification:'Karla, Normal';font-variant-ligatures:normal;font-variant-caps:normal;font-variant-numeric:normal;font-feature-settings:normal;text-align:start;letter-spacing:-3.17499995px;writing-mode:lr-tb;text-anchor:start;fill:#24292e;fill-opacity:1;stroke-width:0.26458332"
         id="path4540"
         inkscape:connector-curvature="0" />
      <path
         d="m 57.948117,217.77428 q 2.54,0 4.0894,1.651 1.5748,1.651 1.5748,4.7244 0,3.048 -1.5748,4.699 -1.5494,1.651 -4.0894,1.651 -2.54,0 -4.1148,-1.651 -1.5494,-1.651 -1.5494,-4.699 0,-3.0734 1.5494,-4.7244 1.5748,-1.651 4.1148,-1.651 z m 3.6322,6.3754 q 0,-2.1844 -0.9144,-3.4036 -0.9144,-1.2446 -2.6924,-1.2446 -1.7526,0 -2.6924,1.2446 -0.9398,1.2192 -0.9398,3.4036 0,2.159 0.889,3.4036 0.889,1.2192 2.6416,1.2192 1.778,0 2.7432,-1.2192 0.9652,-1.2446 0.9652,-3.4036 z"
         style="font-style:normal;font-variant:normal;font-weight:normal;font-stretch:normal;font-size:25.39999962px;font-family:Karla;-inkscape-font-specification:'Karla, Normal';font-variant-ligatures:normal;font-variant-caps:normal;font-variant-numeric:normal;font-feature-settings:normal;text-align:start;letter-spacing:-3.17499995px;writing-mode:lr-tb;text-anchor:start;fill:#24292e;fill-opacity:1;stroke-width:0.26458332"
         id="path4542"
         inkscape:connector-curvature="0" />
      <path
         d="m 66.225342,220.41588 q 1.1938,-2.6416 4.0894,-2.6416 1.5748,0 2.6416,0.7874 1.0668,0.762 1.5494,2.1336 1.143,-2.921 4.2418,-2.921 2.184399,0 3.378199,1.4224 1.1938,1.4224 1.1938,3.8862 v 7.1374 h -1.9812 v -7.1374 q 0,-1.7526 -0.8382,-2.6416 -0.812799,-0.889 -2.362199,-0.889 -1.5494,0 -2.413,1.27 -0.8382,1.27 -0.8382,3.5052 v 5.8928 h -1.9812 v -7.1374 q 0,-1.7526 -0.8382,-2.6416 -0.8128,-0.889 -2.3368,-0.889 -1.524,0 -2.4638,1.2446 -0.9398,1.2446 -0.9906,3.4544 v 5.969 h -2.0066 v -12.1412 h 1.7272 z"
         style="font-style:normal;font-variant:normal;font-weight:normal;font-stretch:normal;font-size:25.39999962px;font-family:Karla;-inkscape-font-specification:'Karla, Normal';font-variant-ligatures:normal;font-variant-caps:normal;font-variant-numeric:normal;font-feature-settings:normal;text-align:start;letter-spacing:-3.17499995px;writing-mode:lr-tb;text-anchor:start;fill:#24292e;fill-opacity:1;stroke-width:0.26458332"
         id="path4544"
         inkscape:connector-curvature="0" />
      <path
         d="m 89.073832,228.87408 q 2.5146,0 2.8702,-2.2098 h 2.0574 q -0.2794,1.8288 -1.6256,2.8448 -1.3208,0.9906 -3.302,0.9906 -2.4384,0 -3.9624,-1.7272 -1.524,-1.7526 -1.524,-4.6482 0,-2.8956 1.524,-4.6228 1.5494,-1.7272 4.0894,-1.7272 2.5654,0 3.81,1.9812 1.27,1.9812 0.889,4.826 h -8.3058 q 0,1.8796 0.9144,3.0988 0.9144,1.1938 2.5654,1.1938 z m 1.4732,-9.1948 q -0.5842,-0.3048 -1.4224,-0.3048 -1.5494,0 -2.4638,1.0668 -0.889,1.0414 -1.0414,2.6162 h 6.477 q 0,-2.54 -1.5494,-3.3782 z"
         style="font-style:normal;font-variant:normal;font-weight:normal;font-stretch:normal;font-size:25.39999962px;font-family:Karla;-inkscape-font-specification:'Karla, Normal';font-variant-ligatures:normal;font-variant-caps:normal;font-variant-numeric:normal;font-feature-settings:normal;text-align:start;letter-spacing:-3.17499995px;writing-mode:lr-tb;text-anchor:start;fill:#24292e;fill-opacity:1;stroke-width:0.26458332"
         id="path4546"
         inkscape:connector-curvature="0" />
      <path
         d="m 96.684307,219.93328 q 1.1938,-2.159 3.556003,-2.159 2.3876,0 3.9624,1.7526 1.6002,1.7526 1.6002,4.6228 0,2.8702 -1.6002,4.6228 -1.6002,1.7272 -3.937,1.7272 -2.336803,0 -3.454403,-1.7526 v 7.4422 h -2.0066 v -18.1102 h 1.651 z m 3.479803,8.7884 q 1.4224,0 2.4892,-1.2192 1.0922,-1.2192 1.0922,-3.3274 0,-2.1336 -1.0414,-3.3782 -1.016,-1.2446 -2.4892,-1.2446 -1.473203,0 -2.413003,0.9398 -0.9398,0.9144 -0.9906,2.4892 v 2.3114 q 0,1.6002 0.9652,2.5146 0.9652,0.9144 2.387603,0.9144 z"
         style="font-style:normal;font-variant:normal;font-weight:normal;font-stretch:normal;font-size:25.39999962px;font-family:Karla;-inkscape-font-specification:'Karla, Normal';font-variant-ligatures:normal;font-variant-caps:normal;font-variant-numeric:normal;font-feature-settings:normal;text-align:start;letter-spacing:-3.17499995px;writing-mode:lr-tb;text-anchor:start;fill:#24292e;fill-opacity:1;stroke-width:0.26458332"
         id="path4548"
         inkscape:connector-curvature="0" />
      <path
         d="m 114.22936,222.34628 q 0,-1.651 -0.6858,-2.3622 -0.6858,-0.7112 -2.0066,-0.7112 -1.2954,0 -2.1082,0.5334 -0.7874,0.508 -0.7874,1.6256 h -2.2098 q 0,-2.794 2.9972,-3.4544 0.9144,-0.2032 1.9812,-0.2032 2.2606,0 3.5306,1.143 1.27,1.143 1.27,3.4798 v 7.8232 h -1.7272 l -0.2032,-2.032 q -1.1176,2.3114 -4.0386,2.3114 -1.9558,0 -3.1496,-1.0922 -1.1684,-1.0922 -1.1684,-2.7178 0,-1.6256 1.2954,-2.54 1.3208,-0.9144 3.2766,-0.9144 1.9558,0 3.7338,0.6604 z m 0,2.8194 q -1.8034,-0.508 -3.1496,-0.508 -1.3462,0 -2.1844,0.4826 -0.8382,0.4826 -0.8382,1.524 0,2.286 2.5908,2.286 1.4732,0 2.5146,-1.0414 1.0668,-1.0668 1.0668,-2.7432 z"
         style="font-style:normal;font-variant:normal;font-weight:normal;font-stretch:normal;font-size:25.39999962px;font-family:Karla;-inkscape-font-specification:'Karla, Normal';font-variant-ligatures:normal;font-variant-caps:normal;font-variant-numeric:normal;font-feature-settings:normal;text-align:start;letter-spacing:-3.17499995px;writing-mode:lr-tb;text-anchor:start;fill:#24292e;fill-opacity:1;stroke-width:0.26458332"
         id="path4550"
         inkscape:connector-curvature="0" />
      <path
         d="m 118.28185,229.83928 q -1.524,-0.7366 -1.524,-2.2606 0,-0.7874 0.5842,-1.3716 0.6096,-0.6096 1.4986,-0.8128 -1.3716,-1.2192 -1.3716,-3.2004 0,-1.9812 1.397,-3.2004 1.4224,-1.2192 3.3528,-1.2192 1.9304,0 3.2766,0.9144 0.1778,-1.3462 1.0668,-2.159 0.9144,-0.8128 2.3876,-0.8128 l -0.1778,1.9812 q -2.2352,0 -2.3368,1.8796 0.889,1.0922 0.889,2.6162 0,1.9558 -1.4224,3.2258 -1.397,1.2446 -3.5052,1.2446 -1.4478,0 -2.5654,-0.5842 -0.508,0.1016 -0.9144,0.4826 -0.4064,0.3556 -0.4064,0.9906 0,1.3462 2.2352,1.3462 h 4.7244 q 1.7018,0 2.6924,0.7366 0.9906,0.7112 0.9906,2.0066 0,1.9304 -1.9558,3.3782 -1.9304,1.4478 -4.9022,1.4478 -2.9718,0 -4.6736,-1.1176 -1.7018,-1.0922 -1.7018,-2.7686 0,-1.0922 0.635,-1.778 0.6604,-0.6858 1.7272,-0.9652 z m -0.381,2.667 q 0,0.9652 1.0414,1.651 1.0668,0.7112 3.2004,0.7112 2.159,0 3.5814,-0.9398 1.4478,-0.9144 1.4478,-2.159 0,-0.5842 -0.4318,-1.016 -0.4064,-0.4064 -1.27,-0.4064 h -4.9022 q -1.2954,0.0508 -1.9812,0.6096 -0.6858,0.5842 -0.6858,1.5494 z m 7.4676,-10.3124 q 0,-1.3208 -0.7874,-2.1336 -0.7874,-0.8382 -2.1844,-0.8382 -1.3716,0 -2.159,0.8382 -0.7874,0.8128 -0.7874,2.1336 0,1.3208 0.7874,2.1844 0.8128,0.8382 2.1844,0.8382 1.3716,0 2.159,-0.8636 0.7874,-0.8636 0.7874,-2.159 z"
         style="font-style:normal;font-variant:normal;font-weight:normal;font-stretch:normal;font-size:25.39999962px;font-family:Karla;-inkscape-font-specification:'Karla, Normal';font-variant-ligatures:normal;font-variant-caps:normal;font-variant-numeric:normal;font-feature-settings:normal;text-align:start;letter-spacing:-3.17499995px;writing-mode:lr-tb;text-anchor:start;fill:#24292e;fill-opacity:1;stroke-width:0.26458332"
         id="path4552"
         inkscape:connector-curvature="0" />
      <path
         d="m 133.12696,228.87408 q 2.5146,0 2.8702,-2.2098 h 2.0574 q -0.2794,1.8288 -1.6256,2.8448 -1.3208,0.9906 -3.302,0.9906 -2.4384,0 -3.9624,-1.7272 -1.524,-1.7526 -1.524,-4.6482 0,-2.8956 1.524,-4.6228 1.5494,-1.7272 4.0894,-1.7272 2.5654,0 3.81,1.9812 1.27,1.9812 0.889,4.826 h -8.3058 q 0,1.8796 0.9144,3.0988 0.9144,1.1938 2.5654,1.1938 z m 1.4732,-9.1948 q -0.5842,-0.3048 -1.4224,-0.3048 -1.5494,0 -2.4638,1.0668 -0.889,1.0414 -1.0414,2.6162 h 6.477 q 0,-2.54 -1.5494,-3.3782 z"
         style="font-style:normal;font-variant:normal;font-weight:normal;font-stretch:normal;font-size:25.39999962px;font-family:Karla;-inkscape-font-specification:'Karla, Normal';font-variant-ligatures:normal;font-variant-caps:normal;font-variant-numeric:normal;font-feature-settings:normal;text-align:start;letter-spacing:-3.17499995px;writing-mode:lr-tb;text-anchor:start;fill:#24292e;fill-opacity:1;stroke-width:0.26458332"
         id="path4554"
         inkscape:connector-curvature="0" />
      <path
         d="m 146.10397,217.77428 q 2.54,0 4.0894,1.651 1.5748,1.651 1.5748,4.7244 0,3.048 -1.5748,4.699 -1.5494,1.651 -4.0894,1.651 -2.54,0 -4.1148,-1.651 -1.5494,-1.651 -1.5494,-4.699 0,-3.0734 1.5494,-4.7244 1.5748,-1.651 4.1148,-1.651 z m 3.6322,6.3754 q 0,-2.1844 -0.9144,-3.4036 -0.9144,-1.2446 -2.6924,-1.2446 -1.7526,0 -2.6924,1.2446 -0.9398,1.2192 -0.9398,3.4036 0,2.159 0.889,3.4036 0.889,1.2192 2.6416,1.2192 1.778,0 2.7432,-1.2192 0.9652,-1.2446 0.9652,-3.4036 z"
         style="font-style:normal;font-variant:normal;font-weight:normal;font-stretch:normal;font-size:25.39999962px;font-family:Karla;-inkscape-font-specification:'Karla, Normal';font-variant-ligatures:normal;font-variant-caps:normal;font-variant-numeric:normal;font-feature-settings:normal;text-align:start;letter-spacing:-3.17499995px;writing-mode:lr-tb;text-anchor:start;fill:#24292e;fill-opacity:1;stroke-width:0.26458332"
         id="path4556"
         inkscape:connector-curvature="0" />
      <path
         d="m 158.3436,214.62468 q -0.8382,-0.3302 -1.3208,-0.3302 -0.889,0 -1.397,0.4318 -0.508,0.4318 -0.508,1.524 v 1.8288 h 2.5146 v 1.3716 h -2.5146 v 10.7696 h -1.9812 v -10.7696 H 151.13 v -1.3716 h 2.0066 v -1.8542 q 0,-1.8034 0.9906,-2.6416 0.9906,-0.8636 2.286,-0.8636 1.2954,0 2.286,0.3302 z"
         style="font-style:normal;font-variant:normal;font-weight:normal;font-stretch:normal;font-size:25.39999962px;font-family:Karla;-inkscape-font-specification:'Karla, Normal';font-variant-ligatures:normal;font-variant-caps:normal;font-variant-numeric:normal;font-feature-settings:normal;text-align:start;letter-spacing:-3.17499995px;writing-mode:lr-tb;text-anchor:start;fill:#24292e;fill-opacity:1;stroke-width:0.26458332"
         id="path4558"
         inkscape:connector-curvature="0" />
    </g>
    <g
       aria-label="Craig Allison"
       style="font-style:normal;font-variant:normal;font-weight:bold;font-stretch:normal;font-size:10.58333302px;line-height:1.25;font-family:Karla;-inkscape-font-specification:'Karla, Bold';font-variant-ligatures:normal;font-variant-caps:normal;font-variant-numeric:normal;font-feature-settings:normal;text-align:start;letter-spacing:0px;word-spacing:0px;writing-mode:lr-tb;text-anchor:start;fill:#24292e;fill-opacity:1;stroke:none;stroke-width:0.26458332"
       id="text4491"
       transform="translate(0.2645809,-0.26460469)">
      <path
         d="m 15.172255,233.57577 q 2.751666,0 4.769555,0.68791 2.017889,0.64206 3.485445,1.83445 2.88925,2.33891 3.760611,6.55814 l -5.7785,1.0548 q -0.733778,-2.33891 -2.293056,-3.76061 -1.513416,-1.46755 -3.806472,-1.46755 -3.118555,0 -5.044722,2.61408 -2.06375,2.84339 -2.06375,7.88811 0,4.99886 1.834444,7.84225 1.834445,2.79753 4.998861,2.79753 3.164417,0 4.769556,-1.51342 1.605139,-1.55928 1.605139,-3.98992 h 5.824361 q 0,4.99886 -3.210278,7.75053 -3.164416,2.70581 -8.713611,2.70581 -5.9160832,0 -9.4015276,-4.1275 -3.5313055,-4.21923 -3.5313055,-11.46528 0,-7.33778 3.6230277,-11.46528 3.4854445,-3.94405 9.1722224,-3.94405 z"
         style="font-style:normal;font-variant:normal;font-weight:bold;font-stretch:normal;font-size:45.86111069px;font-family:Karla;-inkscape-font-specification:'Karla, Bold';font-variant-ligatures:normal;font-variant-caps:normal;font-variant-numeric:normal;font-feature-settings:normal;text-align:start;letter-spacing:-6.61458349px;writing-mode:lr-tb;text-anchor:start;fill:#24292e;fill-opacity:1;stroke-width:0.26458332"
         id="path4561"
         inkscape:connector-curvature="0" />
      <path
         d="m 32.3947,246.04999 q 2.017889,-4.81542 6.053667,-4.81542 0.779639,0 1.972028,0.32103 l -0.09172,5.41161 q -1.284112,-0.27517 -2.522362,-0.27517 -5.411611,0 -5.411611,7.47536 v 9.76842 H 26.983089 V 241.60146 H 32.3947 Z"
         style="font-style:normal;font-variant:normal;font-weight:bold;font-stretch:normal;font-size:45.86111069px;font-family:Karla;-inkscape-font-specification:'Karla, Bold';font-variant-ligatures:normal;font-variant-caps:normal;font-variant-numeric:normal;font-feature-settings:normal;text-align:start;letter-spacing:-6.61458349px;writing-mode:lr-tb;text-anchor:start;fill:#24292e;fill-opacity:1;stroke-width:0.26458332"
         id="path4563"
         inkscape:connector-curvature="0" />
      <path
         d="m 46.785224,250.91127 q 2.659945,0 6.145389,0.87136 v -2.20134 q 0,-2.33891 -0.963083,-3.43958 -0.917222,-1.14653 -3.072695,-1.14653 -2.109611,0 -3.256138,0.87136 -1.146528,0.8255 -1.146528,2.38478 h -5.916083 q 0,-3.80647 2.659944,-5.50333 2.705806,-1.69686 7.521222,-1.69686 6.879167,0 8.897056,4.81541 0.687916,1.651 0.687916,3.8982 v 14.17108 H 53.61853 l -0.41275,-2.98097 q -2.155472,3.62303 -6.604,3.62303 -4.310944,0 -6.695722,-2.10961 -2.201334,-2.01789 -2.201334,-5.09059 0,-3.11855 2.430639,-4.76955 2.430639,-1.69686 6.649861,-1.69686 z m 6.145389,4.31094 q -2.705805,-0.73378 -5.044722,-0.73378 -4.402667,0 -4.402667,2.93511 0,1.23825 1.008945,2.15548 1.008944,0.87136 3.210278,0.87136 2.247194,0 3.668888,-1.46756 1.467556,-1.51342 1.559278,-3.76061 z"
         style="font-style:normal;font-variant:normal;font-weight:bold;font-stretch:normal;font-size:45.86111069px;font-family:Karla;-inkscape-font-specification:'Karla, Bold';font-variant-ligatures:normal;font-variant-caps:normal;font-variant-numeric:normal;font-feature-settings:normal;text-align:start;letter-spacing:-6.61458349px;writing-mode:lr-tb;text-anchor:start;fill:#24292e;fill-opacity:1;stroke-width:0.26458332"
         id="path4565"
         inkscape:connector-curvature="0" />
      <path
         d="m 60.073645,241.60146 h 5.411611 v 22.33436 h -5.411611 z m -0.642055,-7.15433 q 0,-1.46756 0.871361,-2.29306 0.871361,-0.87136 2.4765,-0.87136 1.559277,0 2.430638,0.87136 0.917223,0.8255 0.917223,2.29306 0,1.46755 -0.917223,2.33891 -0.871361,0.8255 -2.430638,0.8255 -1.605139,0 -2.4765,-0.8255 -0.871361,-0.87136 -0.871361,-2.33891 z"
         style="font-style:normal;font-variant:normal;font-weight:bold;font-stretch:normal;font-size:45.86111069px;font-family:Karla;-inkscape-font-specification:'Karla, Bold';font-variant-ligatures:normal;font-variant-caps:normal;font-variant-numeric:normal;font-feature-settings:normal;text-align:start;letter-spacing:-6.61458349px;writing-mode:lr-tb;text-anchor:start;fill:#24292e;fill-opacity:1;stroke-width:0.26458332"
         id="path4567"
         inkscape:connector-curvature="0" />
      <path
         d="m 69.974794,254.80946 q -2.705805,-2.29306 -2.705805,-5.73264 0,-3.62303 2.843389,-5.87022 2.751666,-2.15547 6.282972,-2.15547 3.577166,0 5.961944,1.32997 0.275167,-2.61408 2.247195,-4.21922 1.926166,-1.60514 4.54025,-1.60514 l -0.275167,5.1823 q -3.944056,0 -4.081639,2.61409 1.696861,2.10961 1.696861,4.31094 0,2.20133 -0.779639,3.71475 -0.779639,1.46756 -2.109611,2.4765 -2.751666,2.20133 -6.695722,2.20133 -2.247194,0 -4.081639,-0.68791 -1.834444,0.55033 -1.834444,2.20133 0,2.06375 3.485444,2.06375 h 7.475361 q 7.612945,0 7.612945,5.31989 0,1.78858 -0.917223,3.48544 -0.871361,1.74273 -2.568222,3.0727 -3.760611,2.93511 -9.447389,2.93511 -5.503333,0 -8.942916,-2.24719 -3.210278,-2.15548 -3.210278,-5.27403 0,-2.06375 1.23825,-3.302 1.284111,-1.19239 3.347861,-1.51342 -2.705805,-1.651 -2.705805,-4.08164 0,-1.60514 1.008944,-2.65994 1.008944,-1.10067 2.614083,-1.55928 z m 4.1275,9.63083 q -4.310944,0.18345 -4.310944,3.25614 0,1.55928 1.788583,2.4765 1.834445,0.96309 4.310945,0.96309 2.4765,0 3.852333,-0.41275 1.421694,-0.41275 2.384778,-1.10067 2.06375,-1.37583 2.06375,-3.302 0,-0.8255 -0.596195,-1.37583 -0.550333,-0.50448 -1.651,-0.50448 z m 7.01675,-15.40933 q 0,-1.8803 -1.054805,-3.02683 -1.008945,-1.19239 -3.118556,-1.19239 -2.109611,0 -3.210278,1.19239 -1.100666,1.14653 -1.100666,3.02683 0,1.83444 1.100666,3.02683 1.100667,1.19239 3.210278,1.19239 2.109611,0 3.118556,-1.19239 1.054805,-1.19239 1.054805,-3.02683 z"
         style="font-style:normal;font-variant:normal;font-weight:bold;font-stretch:normal;font-size:45.86111069px;font-family:Karla;-inkscape-font-specification:'Karla, Bold';font-variant-ligatures:normal;font-variant-caps:normal;font-variant-numeric:normal;font-feature-settings:normal;text-align:start;letter-spacing:-6.61458349px;writing-mode:lr-tb;text-anchor:start;fill:#24292e;fill-opacity:1;stroke-width:0.26458332"
         id="path4569"
         inkscape:connector-curvature="0" />
      <path
         d="m 100.03565,234.17196 h 6.78745 l 9.76841,29.76386 h -5.73264 l -2.06375,-6.42055 H 97.742596 l -2.109612,6.42055 h -5.732638 z m -0.917221,19.26167 h 8.346721 l -4.1275,-12.79525 z"
         style="font-style:normal;font-variant:normal;font-weight:bold;font-stretch:normal;font-size:45.86111069px;font-family:Karla;-inkscape-font-specification:'Karla, Bold';font-variant-ligatures:normal;font-variant-caps:normal;font-variant-numeric:normal;font-feature-settings:normal;text-align:start;letter-spacing:-6.61458349px;writing-mode:lr-tb;text-anchor:start;fill:#24292e;fill-opacity:1;stroke-width:0.26458332"
         id="path4571"
         inkscape:connector-curvature="0" />
      <path
         d="m 115.29467,232.4751 h 5.41161 v 31.46072 h -5.41161 z"
         style="font-style:normal;font-variant:normal;font-weight:bold;font-stretch:normal;font-size:45.86111069px;font-family:Karla;-inkscape-font-specification:'Karla, Bold';font-variant-ligatures:normal;font-variant-caps:normal;font-variant-numeric:normal;font-feature-settings:normal;text-align:start;letter-spacing:-6.61458349px;writing-mode:lr-tb;text-anchor:start;fill:#24292e;fill-opacity:1;stroke-width:0.26458332"
         id="path4573"
         inkscape:connector-curvature="0" />
      <path
         d="m 122.65339,232.4751 h 5.41162 v 31.46072 h -5.41162 z"
         style="font-style:normal;font-variant:normal;font-weight:bold;font-stretch:normal;font-size:45.86111069px;font-family:Karla;-inkscape-font-specification:'Karla, Bold';font-variant-ligatures:normal;font-variant-caps:normal;font-variant-numeric:normal;font-feature-settings:normal;text-align:start;letter-spacing:-6.61458349px;writing-mode:lr-tb;text-anchor:start;fill:#24292e;fill-opacity:1;stroke-width:0.26458332"
         id="path4575"
         inkscape:connector-curvature="0" />
      <path
         d="m 130.47072,241.60146 h 5.41162 v 22.33436 h -5.41162 z m -0.64205,-7.15433 q 0,-1.46756 0.87136,-2.29306 0.87136,-0.87136 2.4765,-0.87136 1.55928,0 2.43064,0.87136 0.91722,0.8255 0.91722,2.29306 0,1.46755 -0.91722,2.33891 -0.87136,0.8255 -2.43064,0.8255 -1.60514,0 -2.4765,-0.8255 -0.87136,-0.87136 -0.87136,-2.33891 z"
         style="font-style:normal;font-variant:normal;font-weight:bold;font-stretch:normal;font-size:45.86111069px;font-family:Karla;-inkscape-font-specification:'Karla, Bold';font-variant-ligatures:normal;font-variant-caps:normal;font-variant-numeric:normal;font-feature-settings:normal;text-align:start;letter-spacing:-6.61458349px;writing-mode:lr-tb;text-anchor:start;fill:#24292e;fill-opacity:1;stroke-width:0.26458332"
         id="path4577"
         inkscape:connector-curvature="0" />
      <path
         d="m 141.47254,257.14838 q 0.0917,3.16441 4.63197,3.16441 1.74272,0 2.84339,-0.73377 1.14653,-0.77964 1.14653,-1.78859 0,-1.00894 -0.68792,-1.55928 -0.68791,-0.55033 -2.15547,-1.00894 l -4.86128,-1.74272 q -5.41161,-1.88031 -5.41161,-6.14539 0,-2.84339 2.52236,-4.54025 2.56822,-1.74272 6.83331,-1.74272 4.31094,0 6.604,1.8803 2.33891,1.88031 2.43064,4.7237 h -5.09059 q -0.0917,-1.10067 -1.0548,-1.74272 -0.96309,-0.64206 -2.75167,-0.64206 -1.78858,0 -2.79753,0.73378 -0.96308,0.68791 -0.96308,1.60514 0,1.60514 2.70581,2.38477 l 5.27402,1.97203 q 2.61409,0.87136 3.98992,2.2472 1.42169,1.32997 1.42169,3.48544 0,2.75167 -2.61408,4.76956 -2.7058,2.10961 -7.15433,2.10961 -4.44853,0 -7.15434,-1.92617 -2.7058,-1.97203 -2.75166,-5.50333 z"
         style="font-style:normal;font-variant:normal;font-weight:bold;font-stretch:normal;font-size:45.86111069px;font-family:Karla;-inkscape-font-specification:'Karla, Bold';font-variant-ligatures:normal;font-variant-caps:normal;font-variant-numeric:normal;font-feature-settings:normal;text-align:start;letter-spacing:-6.61458349px;writing-mode:lr-tb;text-anchor:start;fill:#24292e;fill-opacity:1;stroke-width:0.26458332"
         id="path4579"
         inkscape:connector-curvature="0" />
      <path
         d="m 164.77517,241.05113 q 2.2472,0 4.21922,0.73378 1.97203,0.68791 3.39373,2.15547 3.16441,3.21028 3.16441,8.89705 0,5.59506 -3.16441,8.80534 -2.84339,2.93511 -7.61295,2.93511 -4.76955,0 -7.70467,-2.93511 -3.16441,-3.16442 -3.16441,-8.80534 0,-5.73264 3.16441,-8.89705 2.88925,-2.88925 7.70467,-2.88925 z m 5.36575,11.74044 q 0,-3.5313 -1.37583,-5.27403 -1.37584,-1.78858 -3.85234,-1.78858 -2.43063,0 -3.98991,1.78858 -1.55928,1.74273 -1.55928,5.27403 0,3.53131 1.37583,5.31989 1.4217,1.74272 3.85234,1.74272 2.43064,0 3.98991,-1.74272 1.55928,-1.78858 1.55928,-5.31989 z"
         style="font-style:normal;font-variant:normal;font-weight:bold;font-stretch:normal;font-size:45.86111069px;font-family:Karla;-inkscape-font-specification:'Karla, Bold';font-variant-ligatures:normal;font-variant-caps:normal;font-variant-numeric:normal;font-feature-settings:normal;text-align:start;letter-spacing:-6.61458349px;writing-mode:lr-tb;text-anchor:start;fill:#24292e;fill-opacity:1;stroke-width:0.26458332"
         id="path4581"
         inkscape:connector-curvature="0" />
      <path
         d="m 180.69702,245.49966 q 2.20134,-4.44853 7.06261,-4.44853 4.1275,0 6.19125,2.7058 2.10962,2.70581 2.10962,7.15434 v 13.02455 h -5.41162 v -13.02455 q 0,-2.4765 -1.19238,-3.71475 -1.19239,-1.28411 -3.34787,-1.28411 -2.15547,0 -3.71475,1.92616 -1.51341,1.92617 -1.60513,5.7785 v 10.31875 h -5.41162 v -22.2885 h 4.7237 z"
         style="font-style:normal;font-variant:normal;font-weight:bold;font-stretch:normal;font-size:45.86111069px;font-family:Karla;-inkscape-font-specification:'Karla, Bold';font-variant-ligatures:normal;font-variant-caps:normal;font-variant-numeric:normal;font-feature-settings:normal;text-align:start;letter-spacing:-6.61458349px;writing-mode:lr-tb;text-anchor:start;fill:#24292e;fill-opacity:1;stroke-width:0.26458332"
         id="path4583"
         inkscape:connector-curvature="0" />
    </g>
    <g
       aria-label="GIS Applications Specialist"
       style="font-style:normal;font-weight:normal;font-size:10.58333302px;line-height:1.25;font-family:sans-serif;letter-spacing:0px;word-spacing:0px;fill:#24292e;fill-opacity:1;stroke:none;stroke-width:0.26458332"
       id="text4532">
      <path
         d="m 96.332632,271.58405 q -0.4445,1.23825 -1.703917,1.23825 -1.291167,0 -2.12725,-0.97367 -0.867833,-1.00541 -0.867833,-2.57175 0,-1.651 0.931333,-2.64583 0.899583,-0.96308 2.31775,-0.96308 0.963083,0 1.608667,0.42333 0.656166,0.41275 1.026583,1.31233 l -1.280583,0.29634 q -0.560917,-0.89959 -1.418167,-0.89959 -0.783167,0 -1.30175,0.66675 -0.53975,0.67734 -0.53975,1.80975 0,1.06892 0.486833,1.73567 0.47625,0.65617 1.27,0.65617 0.677334,0 1.11125,-0.43392 0.4445,-0.4445 0.4445,-1.21708 v -0.0423 l -1.545166,-0.0317 v -0.80433 h 2.741083 v 3.53483 h -1.016 z"
         style="font-style:normal;font-variant:normal;font-weight:bold;font-stretch:normal;font-size:10.58333302px;font-family:Karla;-inkscape-font-specification:'Karla, Bold';font-variant-ligatures:normal;font-variant-caps:normal;font-variant-numeric:normal;font-feature-settings:normal;text-align:start;letter-spacing:-1.32291663px;writing-mode:lr-tb;text-anchor:start;fill:#24292e;fill-opacity:1;stroke-width:0.26458332"
         id="path4591" />
      <path
         d="m 97.970237,265.80555 h 1.248833 v 6.86858 h -1.248833 z"
         style="font-style:normal;font-variant:normal;font-weight:bold;font-stretch:normal;font-size:10.58333302px;font-family:Karla;-inkscape-font-specification:'Karla, Bold';font-variant-ligatures:normal;font-variant-caps:normal;font-variant-numeric:normal;font-feature-settings:normal;text-align:start;letter-spacing:-1.32291663px;writing-mode:lr-tb;text-anchor:start;fill:#24292e;fill-opacity:1;stroke-width:0.26458332"
         id="path4593" />
      <path
         d="m 103.48085,267.69997 q -0.16934,-0.89959 -1.27,-0.89959 -0.53975,0 -0.84667,0.22225 -0.29633,0.21167 -0.29633,0.51859 0,0.30691 0.1905,0.48683 0.20108,0.16933 0.61383,0.3175 l 1.49225,0.58208 q 0.762,0.29634 1.17475,0.75142 0.41275,0.4445 0.41275,1.12183 0,0.93134 -0.6985,1.48167 -0.6985,0.53975 -1.98967,0.53975 -1.143,0 -1.85208,-0.56092 -0.79375,-0.61383 -0.836083,-1.73566 h 1.238253 q 0,0.84666 0.87841,1.06891 0.26459,0.0741 0.6985,0.0741 0.43392,0 0.80434,-0.21167 0.37041,-0.22225 0.37041,-0.58208 0,-0.37042 -0.20108,-0.56092 -0.20108,-0.20108 -0.65617,-0.37042 l -1.36525,-0.53975 q -0.79375,-0.30691 -1.21708,-0.71966 -0.423333,-0.41275 -0.423333,-1.143 0,-0.85725 0.666753,-1.35467 0.67733,-0.51858 1.83091,-0.51858 1.16417,0 1.78859,0.53975 0.635,0.52916 0.73025,1.49225 z"
         style="font-style:normal;font-variant:normal;font-weight:bold;font-stretch:normal;font-size:10.58333302px;font-family:Karla;-inkscape-font-specification:'Karla, Bold';font-variant-ligatures:normal;font-variant-caps:normal;font-variant-numeric:normal;font-feature-settings:normal;text-align:start;letter-spacing:-1.32291663px;writing-mode:lr-tb;text-anchor:start;fill:#24292e;fill-opacity:1;stroke-width:0.26458332"
         id="path4595" />
      <path
         d="m 108.26005,265.80555 h 1.56633 l 2.25425,6.86858 h -1.32292 l -0.47625,-1.48166 h -2.55058 l -0.48683,1.48166 h -1.32292 z m -0.21167,4.445 h 1.92617 l -0.9525,-2.95275 z"
         style="font-style:normal;font-variant:normal;font-weight:bold;font-stretch:normal;font-size:10.58333302px;font-family:Karla;-inkscape-font-specification:'Karla, Bold';font-variant-ligatures:normal;font-variant-caps:normal;font-variant-numeric:normal;font-feature-settings:normal;text-align:start;letter-spacing:-1.32291663px;writing-mode:lr-tb;text-anchor:start;fill:#24292e;fill-opacity:1;stroke-width:0.26458332"
         id="path4597" />
      <path
         d="m 113.12789,268.22913 q 0.48683,-0.83608 1.48166,-0.83608 0.9525,0 1.62983,0.71967 0.71967,0.762 0.71967,1.98966 0,1.23825 -0.73025,2.00025 -0.67733,0.71967 -1.61925,0.71967 -0.94191,0 -1.37583,-0.56092 v 2.921 h -1.24883 v -7.65175 h 1.02658 z m 1.25941,3.46075 q 0.22225,0 0.45509,-0.0953 0.24341,-0.0953 0.43391,-0.29633 0.42334,-0.4445 0.42334,-1.18533 0,-0.75142 -0.37042,-1.17475 -0.35983,-0.42334 -0.889,-0.42334 -0.51858,0 -0.85725,0.30692 -0.32808,0.29633 -0.34925,0.85725 v 0.92075 q 0,0.49742 0.34925,0.80433 0.32808,0.28575 0.80433,0.28575 z"
         style="font-style:normal;font-variant:normal;font-weight:bold;font-stretch:normal;font-size:10.58333302px;font-family:Karla;-inkscape-font-specification:'Karla, Bold';font-variant-ligatures:normal;font-variant-caps:normal;font-variant-numeric:normal;font-feature-settings:normal;text-align:start;letter-spacing:-1.32291663px;writing-mode:lr-tb;text-anchor:start;fill:#24292e;fill-opacity:1;stroke-width:0.26458332"
         id="path4599" />
      <path
         d="m 118.25419,268.22913 q 0.48683,-0.83608 1.48166,-0.83608 0.9525,0 1.62984,0.71967 0.71966,0.762 0.71966,1.98966 0,1.23825 -0.73025,2.00025 -0.67733,0.71967 -1.61925,0.71967 -0.94191,0 -1.37583,-0.56092 v 2.921 h -1.24883 v -7.65175 h 1.02658 z m 1.25941,3.46075 q 0.22225,0 0.45509,-0.0953 0.24341,-0.0953 0.43391,-0.29633 0.42334,-0.4445 0.42334,-1.18533 0,-0.75142 -0.37042,-1.17475 -0.35983,-0.42334 -0.889,-0.42334 -0.51858,0 -0.85725,0.30692 -0.32808,0.29633 -0.34925,0.85725 v 0.92075 q 0,0.49742 0.34925,0.80433 0.32808,0.28575 0.80433,0.28575 z"
         style="font-style:normal;font-variant:normal;font-weight:bold;font-stretch:normal;font-size:10.58333302px;font-family:Karla;-inkscape-font-specification:'Karla, Bold';font-variant-ligatures:normal;font-variant-caps:normal;font-variant-numeric:normal;font-feature-settings:normal;text-align:start;letter-spacing:-1.32291663px;writing-mode:lr-tb;text-anchor:start;fill:#24292e;fill-opacity:1;stroke-width:0.26458332"
         id="path4601" />
      <path
         d="m 122.23749,265.41397 h 1.24883 v 7.26016 h -1.24883 z"
         style="font-style:normal;font-variant:normal;font-weight:bold;font-stretch:normal;font-size:10.58333302px;font-family:Karla;-inkscape-font-specification:'Karla, Bold';font-variant-ligatures:normal;font-variant-caps:normal;font-variant-numeric:normal;font-feature-settings:normal;text-align:start;letter-spacing:-1.32291663px;writing-mode:lr-tb;text-anchor:start;fill:#24292e;fill-opacity:1;stroke-width:0.26458332"
         id="path4603" />
      <path
         d="m 124.24502,267.52005 h 1.24883 v 5.15408 h -1.24883 z m -0.14817,-1.651 q 0,-0.33867 0.20108,-0.52917 0.20109,-0.20108 0.5715,-0.20108 0.35984,0 0.56092,0.20108 0.21167,0.1905 0.21167,0.52917 0,0.33867 -0.21167,0.53975 -0.20108,0.1905 -0.56092,0.1905 -0.37041,0 -0.5715,-0.1905 -0.20108,-0.20108 -0.20108,-0.53975 z"
         style="font-style:normal;font-variant:normal;font-weight:bold;font-stretch:normal;font-size:10.58333302px;font-family:Karla;-inkscape-font-specification:'Karla, Bold';font-variant-ligatures:normal;font-variant-caps:normal;font-variant-numeric:normal;font-feature-settings:normal;text-align:start;letter-spacing:-1.32291663px;writing-mode:lr-tb;text-anchor:start;fill:#24292e;fill-opacity:1;stroke-width:0.26458332"
         id="path4605" />
      <path
         d="m 128.24684,267.39305 q 0.48683,0 0.86783,0.16933 0.39159,0.15875 0.65617,0.42334 0.52917,0.508 0.62442,1.28058 l -1.25942,0.0317 q -0.0847,-0.33867 -0.3175,-0.56092 -0.22225,-0.22225 -0.51858,-0.22225 -0.29634,0 -0.508,0.0953 -0.21167,0.0847 -0.37042,0.27517 -0.35983,0.4445 -0.35983,1.22767 0,0.78316 0.33866,1.18533 0.33867,0.39158 0.81492,0.39158 0.48683,0 0.6985,-0.22225 0.22225,-0.23283 0.22225,-0.62441 h 1.25942 q 0,0.84666 -0.56092,1.40758 -0.5715,0.5715 -1.59808,0.5715 -1.016,0 -1.70392,-0.74083 -0.73025,-0.79375 -0.73025,-1.97909 0,-1.24883 0.73025,-2.00025 0.68792,-0.70908 1.7145,-0.70908 z"
         style="font-style:normal;font-variant:normal;font-weight:bold;font-stretch:normal;font-size:10.58333302px;font-family:Karla;-inkscape-font-specification:'Karla, Bold';font-variant-ligatures:normal;font-variant-caps:normal;font-variant-numeric:normal;font-feature-settings:normal;text-align:start;letter-spacing:-1.32291663px;writing-mode:lr-tb;text-anchor:start;fill:#24292e;fill-opacity:1;stroke-width:0.26458332"
         id="path4607" />
      <path
         d="m 132.26106,269.66847 q 0.61384,0 1.41817,0.20108 v -0.508 q 0,-0.53975 -0.22225,-0.79375 -0.21167,-0.26458 -0.70908,-0.26458 -0.48684,0 -0.75142,0.20108 -0.26458,0.1905 -0.26458,0.55033 h -1.36525 q 0,-0.87841 0.61383,-1.27 0.62442,-0.39158 1.73567,-0.39158 1.5875,0 2.05316,1.11125 0.15875,0.381 0.15875,0.89958 v 3.27025 h -1.09008 l -0.0952,-0.68791 q -0.49742,0.83608 -1.524,0.83608 -0.99483,0 -1.54517,-0.48683 -0.508,-0.46567 -0.508,-1.17475 0,-0.71967 0.56092,-1.10067 0.56092,-0.39158 1.53458,-0.39158 z m 1.41817,0.99483 q -0.62442,-0.16933 -1.16417,-0.16933 -1.016,0 -1.016,0.67733 0,0.28575 0.23284,0.49742 0.23283,0.20108 0.74083,0.20108 0.51858,0 0.84667,-0.33867 0.33866,-0.34925 0.35983,-0.86783 z"
         style="font-style:normal;font-variant:normal;font-weight:bold;font-stretch:normal;font-size:10.58333302px;font-family:Karla;-inkscape-font-specification:'Karla, Bold';font-variant-ligatures:normal;font-variant-caps:normal;font-variant-numeric:normal;font-feature-settings:normal;text-align:start;letter-spacing:-1.32291663px;writing-mode:lr-tb;text-anchor:start;fill:#24292e;fill-opacity:1;stroke-width:0.26458332"
         id="path4609" />
      <path
         d="m 138.32515,272.54713 q -0.6985,0.27517 -1.10067,0.27517 -0.40216,0 -0.70908,-0.0952 -0.29633,-0.0953 -0.52917,-0.28575 -0.48683,-0.43392 -0.48683,-1.19592 v -2.87866 h -0.71967 v -0.83609 h 0.71967 v -1.35466 h 1.24883 v 1.35466 h 1.397 v 0.83609 h -1.397 v 2.83633 q 0,0.635 0.60325,0.635 0.30692,0 0.79375,-0.16933 z"
         style="font-style:normal;font-variant:normal;font-weight:bold;font-stretch:normal;font-size:10.58333302px;font-family:Karla;-inkscape-font-specification:'Karla, Bold';font-variant-ligatures:normal;font-variant-caps:normal;font-variant-numeric:normal;font-feature-settings:normal;text-align:start;letter-spacing:-1.32291663px;writing-mode:lr-tb;text-anchor:start;fill:#24292e;fill-opacity:1;stroke-width:0.26458332"
         id="path4611" />
      <path
         d="m 138.38369,267.52005 h 1.24883 v 5.15408 h -1.24883 z m -0.14817,-1.651 q 0,-0.33867 0.20108,-0.52917 0.20109,-0.20108 0.5715,-0.20108 0.35984,0 0.56092,0.20108 0.21167,0.1905 0.21167,0.52917 0,0.33867 -0.21167,0.53975 -0.20108,0.1905 -0.56092,0.1905 -0.37041,0 -0.5715,-0.1905 -0.20108,-0.20108 -0.20108,-0.53975 z"
         style="font-style:normal;font-variant:normal;font-weight:bold;font-stretch:normal;font-size:10.58333302px;font-family:Karla;-inkscape-font-specification:'Karla, Bold';font-variant-ligatures:normal;font-variant-caps:normal;font-variant-numeric:normal;font-feature-settings:normal;text-align:start;letter-spacing:-1.32291663px;writing-mode:lr-tb;text-anchor:start;fill:#24292e;fill-opacity:1;stroke-width:0.26458332"
         id="path4613" />
      <path
         d="m 142.44901,267.39305 q 0.51858,0 0.97367,0.16933 0.45508,0.15875 0.78316,0.49742 0.73025,0.74083 0.73025,2.05317 0,1.29116 -0.73025,2.032 -0.65616,0.67733 -1.75683,0.67733 -1.10067,0 -1.778,-0.67733 -0.73025,-0.73025 -0.73025,-2.032 0,-1.32292 0.73025,-2.05317 0.66675,-0.66675 1.778,-0.66675 z m 1.23825,2.70933 q 0,-0.81491 -0.3175,-1.21708 -0.3175,-0.41275 -0.889,-0.41275 -0.56092,0 -0.92075,0.41275 -0.35983,0.40217 -0.35983,1.21708 0,0.81492 0.3175,1.22767 0.32808,0.40217 0.889,0.40217 0.56091,0 0.92075,-0.40217 0.35983,-0.41275 0.35983,-1.22767 z"
         style="font-style:normal;font-variant:normal;font-weight:bold;font-stretch:normal;font-size:10.58333302px;font-family:Karla;-inkscape-font-specification:'Karla, Bold';font-variant-ligatures:normal;font-variant-caps:normal;font-variant-numeric:normal;font-feature-settings:normal;text-align:start;letter-spacing:-1.32291663px;writing-mode:lr-tb;text-anchor:start;fill:#24292e;fill-opacity:1;stroke-width:0.26458332"
         id="path4615" />
      <path
         d="m 146.32681,268.41963 q 0.508,-1.02658 1.62983,-1.02658 0.9525,0 1.42875,0.62442 0.48683,0.62441 0.48683,1.651 v 3.00566 h -1.24883 v -3.00566 q 0,-0.5715 -0.27517,-0.85725 -0.27516,-0.29634 -0.77258,-0.29634 -0.49742,0 -0.85725,0.4445 -0.34925,0.4445 -0.37042,1.3335 v 2.38125 h -1.24883 v -5.1435 h 1.09008 z"
         style="font-style:normal;font-variant:normal;font-weight:bold;font-stretch:normal;font-size:10.58333302px;font-family:Karla;-inkscape-font-specification:'Karla, Bold';font-variant-ligatures:normal;font-variant-caps:normal;font-variant-numeric:normal;font-feature-settings:normal;text-align:start;letter-spacing:-1.32291663px;writing-mode:lr-tb;text-anchor:start;fill:#24292e;fill-opacity:1;stroke-width:0.26458332"
         id="path4617" />
      <path
         d="m 151.06864,271.1078 q 0.0212,0.73025 1.06891,0.73025 0.40217,0 0.65617,-0.16933 0.26458,-0.17992 0.26458,-0.41275 0,-0.23284 -0.15875,-0.35984 -0.15875,-0.127 -0.49741,-0.23283 l -1.12184,-0.40217 q -1.24883,-0.43391 -1.24883,-1.41816 0,-0.65617 0.58208,-1.04775 0.59267,-0.40217 1.57692,-0.40217 0.99483,0 1.524,0.43392 0.53975,0.43391 0.56092,1.09008 h -1.17475 q -0.0212,-0.254 -0.24342,-0.40217 -0.22225,-0.14816 -0.635,-0.14816 -0.41275,0 -0.64558,0.16933 -0.22225,0.15875 -0.22225,0.37042 0,0.37041 0.62441,0.55033 l 1.21709,0.45508 q 0.60325,0.20109 0.92075,0.51859 0.32808,0.30691 0.32808,0.80433 0,0.635 -0.60325,1.10067 -0.62442,0.48683 -1.651,0.48683 -1.02658,0 -1.651,-0.4445 -0.62442,-0.45508 -0.635,-1.27 z"
         style="font-style:normal;font-variant:normal;font-weight:bold;font-stretch:normal;font-size:10.58333302px;font-family:Karla;-inkscape-font-specification:'Karla, Bold';font-variant-ligatures:normal;font-variant-caps:normal;font-variant-numeric:normal;font-feature-settings:normal;text-align:start;letter-spacing:-1.32291663px;writing-mode:lr-tb;text-anchor:start;fill:#24292e;fill-opacity:1;stroke-width:0.26458332"
         id="path4619" />
      <path
         d="m 159.60145,267.69997 q -0.16933,-0.89959 -1.27,-0.89959 -0.53975,0 -0.84666,0.22225 -0.29634,0.21167 -0.29634,0.51859 0,0.30691 0.1905,0.48683 0.20109,0.16933 0.61384,0.3175 l 1.49225,0.58208 q 0.762,0.29634 1.17475,0.75142 0.41275,0.4445 0.41275,1.12183 0,0.93134 -0.6985,1.48167 -0.6985,0.53975 -1.98967,0.53975 -1.143,0 -1.85208,-0.56092 -0.79375,-0.61383 -0.83609,-1.73566 h 1.23825 q 0,0.84666 0.87842,1.06891 0.26458,0.0741 0.6985,0.0741 0.43392,0 0.80433,-0.21167 0.37042,-0.22225 0.37042,-0.58208 0,-0.37042 -0.20108,-0.56092 -0.20109,-0.20108 -0.65617,-0.37042 l -1.36525,-0.53975 q -0.79375,-0.30691 -1.21708,-0.71966 -0.42334,-0.41275 -0.42334,-1.143 0,-0.85725 0.66675,-1.35467 0.67734,-0.51858 1.83092,-0.51858 1.16417,0 1.78858,0.53975 0.635,0.52916 0.73025,1.49225 z"
         style="font-style:normal;font-variant:normal;font-weight:bold;font-stretch:normal;font-size:10.58333302px;font-family:Karla;-inkscape-font-specification:'Karla, Bold';font-variant-ligatures:normal;font-variant-caps:normal;font-variant-numeric:normal;font-feature-settings:normal;text-align:start;letter-spacing:-1.32291663px;writing-mode:lr-tb;text-anchor:start;fill:#24292e;fill-opacity:1;stroke-width:0.26458332"
         id="path4621" />
      <path
         d="m 162.5719,268.22913 q 0.48683,-0.83608 1.48167,-0.83608 0.9525,0 1.62983,0.71967 0.71967,0.762 0.71967,1.98966 0,1.23825 -0.73025,2.00025 -0.67734,0.71967 -1.61925,0.71967 -0.94192,0 -1.37584,-0.56092 v 2.921 h -1.24883 v -7.65175 h 1.02658 z m 1.25942,3.46075 q 0.22225,0 0.45508,-0.0953 0.24342,-0.0953 0.43392,-0.29633 0.42333,-0.4445 0.42333,-1.18533 0,-0.75142 -0.37042,-1.17475 -0.35983,-0.42334 -0.889,-0.42334 -0.51858,0 -0.85725,0.30692 -0.32808,0.29633 -0.34925,0.85725 v 0.92075 q 0,0.49742 0.34925,0.80433 0.32809,0.28575 0.80434,0.28575 z"
         style="font-style:normal;font-variant:normal;font-weight:bold;font-stretch:normal;font-size:10.58333302px;font-family:Karla;-inkscape-font-specification:'Karla, Bold';font-variant-ligatures:normal;font-variant-caps:normal;font-variant-numeric:normal;font-feature-settings:normal;text-align:start;letter-spacing:-1.32291663px;writing-mode:lr-tb;text-anchor:start;fill:#24292e;fill-opacity:1;stroke-width:0.26458332"
         id="path4623" />
      <path
         d="m 170.14295,268.14447 q 0.26458,0.33866 0.39158,0.78316 0.13758,0.4445 0.13758,0.81492 0,0.37042 -0.0423,0.66675 h -3.32317 q 0.0212,0.62442 0.30692,1.016 0.28575,0.39158 0.86783,0.39158 0.77259,0 0.92075,-0.67733 h 1.25942 q -0.127,0.77258 -0.70908,1.21708 -0.60325,0.46567 -1.47109,0.46567 -1.016,0 -1.70391,-0.74083 -0.70909,-0.77259 -0.70909,-1.97909 0,-1.23825 0.70909,-1.98966 0.67733,-0.71967 1.70391,-0.71967 1.06892,0 1.66159,0.75142 z m -1.651,0.24341 q -0.52917,0 -0.8255,0.34925 -0.29634,0.33867 -0.34925,0.87842 h 2.19075 q 0,-0.83608 -0.52917,-1.12183 -0.20108,-0.10584 -0.48683,-0.10584 z"
         style="font-style:normal;font-variant:normal;font-weight:bold;font-stretch:normal;font-size:10.58333302px;font-family:Karla;-inkscape-font-specification:'Karla, Bold';font-variant-ligatures:normal;font-variant-caps:normal;font-variant-numeric:normal;font-feature-settings:normal;text-align:start;letter-spacing:-1.32291663px;writing-mode:lr-tb;text-anchor:start;fill:#24292e;fill-opacity:1;stroke-width:0.26458332"
         id="path4625" />
      <path
         d="m 172.79192,267.39305 q 0.48683,0 0.86783,0.16933 0.39159,0.15875 0.65617,0.42334 0.52917,0.508 0.62442,1.28058 l -1.25942,0.0317 q -0.0847,-0.33867 -0.3175,-0.56092 -0.22225,-0.22225 -0.51858,-0.22225 -0.29634,0 -0.508,0.0953 -0.21167,0.0847 -0.37042,0.27517 -0.35983,0.4445 -0.35983,1.22767 0,0.78316 0.33866,1.18533 0.33867,0.39158 0.81492,0.39158 0.48683,0 0.6985,-0.22225 0.22225,-0.23283 0.22225,-0.62441 h 1.25942 q 0,0.84666 -0.56092,1.40758 -0.5715,0.5715 -1.59808,0.5715 -1.016,0 -1.70392,-0.74083 -0.73025,-0.79375 -0.73025,-1.97909 0,-1.24883 0.73025,-2.00025 0.68792,-0.70908 1.7145,-0.70908 z"
         style="font-style:normal;font-variant:normal;font-weight:bold;font-stretch:normal;font-size:10.58333302px;font-family:Karla;-inkscape-font-specification:'Karla, Bold';font-variant-ligatures:normal;font-variant-caps:normal;font-variant-numeric:normal;font-feature-settings:normal;text-align:start;letter-spacing:-1.32291663px;writing-mode:lr-tb;text-anchor:start;fill:#24292e;fill-opacity:1;stroke-width:0.26458332"
         id="path4627" />
      <path
         d="m 175.21865,267.52005 h 1.24883 v 5.15408 h -1.24883 z m -0.14817,-1.651 q 0,-0.33867 0.20108,-0.52917 0.20109,-0.20108 0.5715,-0.20108 0.35984,0 0.56092,0.20108 0.21167,0.1905 0.21167,0.52917 0,0.33867 -0.21167,0.53975 -0.20108,0.1905 -0.56092,0.1905 -0.37041,0 -0.5715,-0.1905 -0.20108,-0.20108 -0.20108,-0.53975 z"
         style="font-style:normal;font-variant:normal;font-weight:bold;font-stretch:normal;font-size:10.58333302px;font-family:Karla;-inkscape-font-specification:'Karla, Bold';font-variant-ligatures:normal;font-variant-caps:normal;font-variant-numeric:normal;font-feature-settings:normal;text-align:start;letter-spacing:-1.32291663px;writing-mode:lr-tb;text-anchor:start;fill:#24292e;fill-opacity:1;stroke-width:0.26458332"
         id="path4629" />
      <path
         d="m 178.95589,269.66847 q 0.61383,0 1.41816,0.20108 v -0.508 q 0,-0.53975 -0.22225,-0.79375 -0.21166,-0.26458 -0.70908,-0.26458 -0.48683,0 -0.75142,0.20108 -0.26458,0.1905 -0.26458,0.55033 h -1.36525 q 0,-0.87841 0.61384,-1.27 0.62441,-0.39158 1.73566,-0.39158 1.5875,0 2.05317,1.11125 0.15875,0.381 0.15875,0.89958 v 3.27025 h -1.09009 l -0.0953,-0.68791 q -0.49741,0.83608 -1.524,0.83608 -0.99483,0 -1.54516,-0.48683 -0.508,-0.46567 -0.508,-1.17475 0,-0.71967 0.56092,-1.10067 0.56091,-0.39158 1.53458,-0.39158 z m 1.41816,0.99483 q -0.62441,-0.16933 -1.16416,-0.16933 -1.016,0 -1.016,0.67733 0,0.28575 0.23283,0.49742 0.23283,0.20108 0.74083,0.20108 0.51859,0 0.84667,-0.33867 0.33867,-0.34925 0.35983,-0.86783 z"
         style="font-style:normal;font-variant:normal;font-weight:bold;font-stretch:normal;font-size:10.58333302px;font-family:Karla;-inkscape-font-specification:'Karla, Bold';font-variant-ligatures:normal;font-variant-caps:normal;font-variant-numeric:normal;font-feature-settings:normal;text-align:start;letter-spacing:-1.32291663px;writing-mode:lr-tb;text-anchor:start;fill:#24292e;fill-opacity:1;stroke-width:0.26458332"
         id="path4631" />
      <path
         d="m 182.12014,265.41397 h 1.24883 v 7.26016 h -1.24883 z"
         style="font-style:normal;font-variant:normal;font-weight:bold;font-stretch:normal;font-size:10.58333302px;font-family:Karla;-inkscape-font-specification:'Karla, Bold';font-variant-ligatures:normal;font-variant-caps:normal;font-variant-numeric:normal;font-feature-settings:normal;text-align:start;letter-spacing:-1.32291663px;writing-mode:lr-tb;text-anchor:start;fill:#24292e;fill-opacity:1;stroke-width:0.26458332"
         id="path4633" />
      <path
         d="m 184.12767,267.52005 h 1.24883 v 5.15408 h -1.24883 z m -0.14817,-1.651 q 0,-0.33867 0.20108,-0.52917 0.20109,-0.20108 0.5715,-0.20108 0.35984,0 0.56092,0.20108 0.21167,0.1905 0.21167,0.52917 0,0.33867 -0.21167,0.53975 -0.20108,0.1905 -0.56092,0.1905 -0.37041,0 -0.5715,-0.1905 -0.20108,-0.20108 -0.20108,-0.53975 z"
         style="font-style:normal;font-variant:normal;font-weight:bold;font-stretch:normal;font-size:10.58333302px;font-family:Karla;-inkscape-font-specification:'Karla, Bold';font-variant-ligatures:normal;font-variant-caps:normal;font-variant-numeric:normal;font-feature-settings:normal;text-align:start;letter-spacing:-1.32291663px;writing-mode:lr-tb;text-anchor:start;fill:#24292e;fill-opacity:1;stroke-width:0.26458332"
         id="path4635" />
      <path
         d="m 186.87007,271.1078 q 0.0212,0.73025 1.06891,0.73025 0.40217,0 0.65617,-0.16933 0.26458,-0.17992 0.26458,-0.41275 0,-0.23284 -0.15875,-0.35984 -0.15875,-0.127 -0.49741,-0.23283 l -1.12184,-0.40217 q -1.24883,-0.43391 -1.24883,-1.41816 0,-0.65617 0.58208,-1.04775 0.59267,-0.40217 1.57692,-0.40217 0.99483,0 1.524,0.43392 0.53975,0.43391 0.56092,1.09008 h -1.17475 q -0.0212,-0.254 -0.24342,-0.40217 -0.22225,-0.14816 -0.635,-0.14816 -0.41275,0 -0.64558,0.16933 -0.22225,0.15875 -0.22225,0.37042 0,0.37041 0.62441,0.55033 l 1.21709,0.45508 q 0.60325,0.20109 0.92075,0.51859 0.32808,0.30691 0.32808,0.80433 0,0.635 -0.60325,1.10067 -0.62442,0.48683 -1.651,0.48683 -1.02658,0 -1.651,-0.4445 -0.62442,-0.45508 -0.635,-1.27 z"
         style="font-style:normal;font-variant:normal;font-weight:bold;font-stretch:normal;font-size:10.58333302px;font-family:Karla;-inkscape-font-specification:'Karla, Bold';font-variant-ligatures:normal;font-variant-caps:normal;font-variant-numeric:normal;font-feature-settings:normal;text-align:start;letter-spacing:-1.32291663px;writing-mode:lr-tb;text-anchor:start;fill:#24292e;fill-opacity:1;stroke-width:0.26458332"
         id="path4637" />
      <path
         d="m 193.32954,272.54713 q -0.6985,0.27517 -1.10067,0.27517 -0.40216,0 -0.70908,-0.0952 -0.29633,-0.0953 -0.52917,-0.28575 -0.48683,-0.43392 -0.48683,-1.19592 v -2.87866 h -0.71967 v -0.83609 h 0.71967 v -1.35466 h 1.24883 v 1.35466 h 1.397 v 0.83609 h -1.397 v 2.83633 q 0,0.635 0.60325,0.635 0.30692,0 0.79375,-0.16933 z"
         style="font-style:normal;font-variant:normal;font-weight:bold;font-stretch:normal;font-size:10.58333302px;font-family:Karla;-inkscape-font-specification:'Karla, Bold';font-variant-ligatures:normal;font-variant-caps:normal;font-variant-numeric:normal;font-feature-settings:normal;text-align:start;letter-spacing:-1.32291663px;writing-mode:lr-tb;text-anchor:start;fill:#24292e;fill-opacity:1;stroke-width:0.26458332"
         id="path4639" />
    </g>
  </g>
</svg>
