<svg xmlns:dc="http://purl.org/dc/elements/1.1/" xmlns:cc="http://creativecommons.org/ns#" xmlns:rdf="http://www.w3.org/1999/02/22-rdf-syntax-ns#" xmlns:svg="http://www.w3.org/2000/svg" xmlns="http://www.w3.org/2000/svg" xmlns:sodipodi="http://sodipodi.sourceforge.net/DTD/sodipodi-0.dtd" xmlns:inkscape="http://www.inkscape.org/namespaces/inkscape" version="1.1" x="0px" y="0px" viewBox="0 0 100 125"><g transform="translate(0,-952.36218)"><path style="text-indent:0;text-transform:none;direction:ltr;block-progression:tb;baseline-shift:baseline;color:#000000;enable-background:accumulate;" d="m 49.96875,959.36217 c -11.483225,0 -20.96875,9.04515 -20.96875,20.75 0,2.89701 0.655916,6.34631 1.625,8.90621 5.557731,11.51592 11.128685,23.08792 16.6875,34.62502 0.493568,0.9945 1.577288,1.6875 2.6875,1.6875 1.110212,0 2.193932,-0.693 2.6875,-1.6875 5.57924,-11.5251 11.10345,-23.1249 16.6875,-34.62502 0.97708,-2.5677 1.625,-6.0121 1.625,-8.90621 0,-11.71372 -9.54793,-20.75 -21.03125,-20.75 z m 0,6 c 8.40083,0 15.03125,6.23132 15.03125,14.75 0,1.72941 -0.64633,5.13481 -1.21875,6.68751 L 50,1015.4559 36.21875,986.79968 C 35.646788,985.24068 35,981.83668 35,980.11217 c 0,-8.52755 6.568057,-14.75 14.96875,-14.75 z m 0.03125,3 c -6.591828,0 -12,5.40811 -12,12.00001 0,6.5918 5.408132,12 12,12 6.591951,0 12,-5.4082 12,-12 0,-6.59185 -5.408089,-12.00001 -12,-12.00001 z m 0,6 c 3.349223,0 6,2.65084 6,6.00001 0,3.349 -2.650817,6 -6,6 -3.349018,0 -6,-2.651 -6,-6 0,-3.34912 2.650942,-6.00001 6,-6.00001 z m -36,25.00001 c -1.493647,0.011 -2.762953,1.39472 -2.96875,2.53122 l -6.0000005,40 c -0.270036,1.7083 1.239257,3.4718 2.9687502,3.4688 l 84.0000003,0 c 1.72949,0 3.23879,-1.7605 2.96875,-3.4688 l -6,-40 C 88.74742,1000.4951 87.41574,999.35968 86,999.36218 l -19.375,0 -2.90625,6.00002 19.6875,0 0.90625,6 -23.46875,0 -3.1875,6.625 17.09375,21.375 -27.3125,0 -11.5,-14.4063 6.9375,-5.875 -2.6875,-5.5937 -8.03125,6.7812 -11.90625,-14.9062 16.03125,0 -2.90625,-6.00002 -19.375,0 z m 1.96875,10.25002 23.78125,29.75 -28.25,0 4.46875,-29.75 z m 48.875,7.75 20.375,0 1.1875,8 -15.15625,0 -6.40625,-8 z m 11.1875,14 11.28125,0 1.1875,8 -6.0625,0 -6.40625,-8 z" fill="#000000" fill-opacity="1" stroke="none" marker="none" visibility="visible" display="inline" overflow="visible"/></g></svg>